<?xml version="1.0" standalone="no"?>
<!DOCTYPE svg PUBLIC "-//W3C//DTD SVG 1.1//EN" "http://www.w3.org/Graphics/SVG/1.1/DTD/svg11.dtd" >
<svg xmlns="http://www.w3.org/2000/svg" xmlns:xlink="http://www.w3.org/1999/xlink" version="1.1">
<metadata>
Created by FontForge 20150824 at Mon Mar  7 08:13:12 2016
 By Everything Fonts
Generated in 2013 by FontLab Studio. Copyright info pending.
</metadata>
<defs>
<font id="ACLine" horiz-adv-x="461" >
  <font-face 
    font-family="ACLine"
    font-weight="400"
    font-stretch="normal"
    units-per-em="1000"
    panose-1="2 0 5 6 0 0 0 2 0 4"
    ascent="750"
    descent="-250"
    x-height="694"
    cap-height="701"
    bbox="-58 -121 681 915"
    underline-thickness="50"
    underline-position="-150"
    unicode-range="U+0020-2122"
  />
<missing-glyph horiz-adv-x="300" 
 />
    <glyph glyph-name=".notdef" horiz-adv-x="300" 
 />
    <glyph glyph-name=".null" horiz-adv-x="0" 
 />
    <glyph glyph-name="nonmarkingreturn" horiz-adv-x="333" 
 />
    <glyph glyph-name="space" unicode=" " horiz-adv-x="300" 
 />
    <glyph glyph-name="exclam" unicode="!" horiz-adv-x="132" 
d="M66 52q11 0 18.5 -7.5t7.5 -18.5q0 -10 -8 -18t-18 -8t-18 8t-8 18t8 18t18 8zM66 157q-14 0 -16 15v513q0 16 16 16t16 -16v-513q0 -6 -4.5 -10.5t-11.5 -4.5z" />
    <glyph glyph-name="quotedbl" unicode="&#x22;" horiz-adv-x="212" 
d="M81 684v-146q0 -6 -4.5 -10.5t-10.5 -4.5q-7 0 -11.5 4.5t-4.5 10.5v146q0 16 16 16q6 0 10.5 -4.5t4.5 -11.5zM162 684v-146q0 -6 -4.5 -10.5t-10.5 -4.5q-7 0 -11.5 4.5t-4.5 10.5v146q0 16 16 16q6 0 10.5 -4.5t4.5 -11.5z" />
    <glyph glyph-name="numbersign" unicode="#" horiz-adv-x="514" 
d="M469 699q10 -3 10 -15q0 -3 -1 -5l-87 -227h61q14 0 16 -16q0 -7 -5 -11.5t-11 -4.5h-73l-54 -141h67q14 0 16 -15q0 -7 -5 -11.5t-11 -4.5h-79l-91 -238q-3 -10 -15 -10q-3 0 -5 1q-10 3 -10 15q0 3 1 5l87 227h-124l-91 -238q-3 -10 -15 -10q-3 0 -5 1q-10 3 -10 15
q0 3 1 5l87 227h-61q-16 0 -16 16q0 6 4.5 10.5t11.5 4.5h73l54 141h-67q-16 0 -16 16t16 16h79l91 238q3 10 15 10q3 0 5 -1q10 -3 10 -15q0 -3 -1 -5l-87 -227h124l91 238q3 10 15 10q3 0 5 -1zM292 279l54 141h-124l-54 -141h124z" />
    <glyph glyph-name="dollar" unicode="$" 
d="M414 146q0 -68 -41 -108q-35 -38 -97 -38h-28v-72q0 -16 -17 -16q-6 0 -10.5 4.5t-4.5 11.5v72h-29q-62 0 -98 38q-39 40 -39 108q0 6 4.5 11t11.5 4q6 0 10.5 -4.5t4.5 -11.5q-1 -53 31 -86q30 -27 75 -27h89q46 0 75 27q14 15 22 36.5t9 35.5l1 14v122q0 53 -32 85
q-27 27 -75 27h-1h-92q-58 3 -94 38q-39 39 -39 102v26v0q0 82 39 122q35 36 98 36h29v73q0 7 4.5 11.5t10.5 4.5q17 0 17 -16v-73h28q64 0 97 -36q41 -42 41 -108q-2 -16 -16 -16q-15 2 -15 16q0 53 -32 86q-27 27 -75 27h-89q-49 0 -75 -27q-17 -17 -24 -49t-7 -52v-18v-2
q-1 -52 31 -85q26 -28 75 -28h88h1q62 0 97 -37q41 -41 41 -108v0v-120z" />
    <glyph glyph-name="percent" unicode="%" horiz-adv-x="438" 
d="M91 0q11 0 14 10l257 669q0 1 0.5 2.5t0.5 2.5q0 12 -9 16q-1 0 -3.5 0.5t-3.5 0.5q-11 0 -14 -11l-257 -668q-1 -2 -1 -6q0 -9 9 -14q4 -2 7 -2zM18 429q-16 16 -18 48v161q0 29 18 48q17 17 45 17h71q29 0 44 -17q19 -19 19 -50v-9v-150q0 -30 -19 -48q-15 -18 -44 -18
h-71q-29 0 -45 18zM30 638v-161q0 -17 11 -27q7 -7 22 -7h71q15 0 22 7q4 4 6 11t2 11l1 5v31v124v6q0 16 -9 27q-10 8 -22 8h-71q-12 0 -22 -8q-5 -5 -7.5 -11.5t-3.5 -11.5v-4zM259 18q-16 16 -18 48v161q0 29 18 48q17 17 45 17h71q29 0 44 -17q19 -19 19 -50v-9v-150
q0 -30 -19 -48q-15 -18 -44 -18h-71q-28 0 -45 18zM271 227v-161q0 -17 11 -27q7 -7 22 -7h71q15 0 22 7q4 4 6.5 11t2.5 12v4v31v124v6q0 16 -9 27q-10 8 -22 8h-71q-12 0 -22 -8q-5 -5 -7.5 -11.5t-2.5 -10.5z" />
    <glyph glyph-name="ampersand" unicode="&#x26;" horiz-adv-x="467" 
d="M466 411q6 0 10.5 -4.5t4.5 -11.5t-4.5 -11.5t-10.5 -4.5h-52v-233q0 -66 -40 -107q-37 -38 -100 -38q-4 0 -26 -0.5t-59 -0.5q-61 0 -99 38q-41 41 -41 110v18v99q0 67 41 108q11 14 29 22q-16 7 -29 22q-41 43 -41 109v9v27q0 66 41 107q36 37 99 37l22 2h63
q62 0 100 -38q40 -42 40 -109q0 -6 -4.5 -11.5t-11.5 -5.5q-16 3 -16 18q0 54 -31 86q-27 28 -77 28h-85q-49 0 -77 -28q-31 -34 -31 -89v-33q0 -54 31 -87q27 -28 77 -28h193v53q0 15 17 15q6 0 10.5 -4.5t4.5 -10.5v-53h52zM382 147v232h-133h-63q-47 0 -74 -28
q-14 -15 -21.5 -36.5t-8.5 -35.5l-1 -14v-118q0 -54 31 -87q28 -28 77 -28q5 0 26.5 0.5t58.5 0.5q50 0 77 27q31 32 31 87z" />
    <glyph glyph-name="quotesingle" unicode="'" horiz-adv-x="131" 
d="M81 684v-146q0 -6 -4.5 -10.5t-10.5 -4.5q-7 0 -11.5 4.5t-4.5 10.5v146q0 16 16 16q6 0 10.5 -4.5t4.5 -11.5z" />
    <glyph glyph-name="parenleft" unicode="(" horiz-adv-x="162" 
d="M204 -87q7 0 11.5 -4.5t4.5 -10.5t-4.5 -10.5t-11.5 -4.5q-64 0 -98 37q-40 41 -40 107v4l-1 2v645q0 67 41 108q27 25 55 33q22 5 43 5q7 0 11.5 -5t4.5 -11q0 -12 -12 -15l-2 -1h-2q-20 0 -33 -4q-27 -6 -42 -23q-14 -15 -22 -36.5t-9 -35.5l-1 -14v-652q0 -53 32 -86
q25 -28 75 -28z" />
    <glyph glyph-name="parenright" unicode=")" horiz-adv-x="162" 
d="M-42 -87q50 0 75 28q14 15 22 36.5t9 35.5l1 14v652q0 53 -32 86q-15 17 -42 23q-13 4 -33 4h-2l-2 1q-12 3 -12 15q0 6 4.5 11t11.5 5q21 0 43 -5q28 -8 55 -33q41 -41 41 -108v-645l-1 -2v-4q0 -66 -40 -107q-34 -37 -98 -37q-7 0 -11.5 4.5t-4.5 10.5t4.5 10.5
t11.5 4.5z" />
    <glyph glyph-name="asterisk" unicode="*" horiz-adv-x="262" 
d="M215 628q12 0 12 -12t-12 -12h-63l31 -55q2 -4 2 -7q0 -6 -6 -9q-4 -2 -6 -2q-7 0 -10 6l-32 55l-32 -55q-3 -6 -10 -6q-2 0 -6 2q-6 3 -6 9q0 3 2 7l31 55h-63q-12 0 -12 12t12 12h63l-32 55q-1 2 -1 5q0 8 6 11q2 1 6 1q7 0 10 -5l32 -55l31 55q5 5 11 5q4 0 6 -1
q6 -3 6 -10q0 -2 -2 -6l-31 -55h63z" />
    <glyph glyph-name="plus" unicode="+" 
d="M395 370q14 0 16 -17q0 -6 -4.5 -10.5t-11.5 -4.5h-149v-149q0 -7 -4.5 -11.5t-10.5 -4.5q-17 0 -17 16v149h-149q-6 0 -10.5 4.5t-4.5 10.5q0 17 15 17h149v149q0 15 17 15q6 0 10.5 -4.5t4.5 -10.5v-149h149z" />
    <glyph glyph-name="comma" unicode="," horiz-adv-x="135" 
d="M75 50h4q11 -5 11 -16v-4l-29 -91q-3 -11 -15 -11q-3 0 -4 1q-12 3 -12 15v2l1 2l29 91q3 11 15 11z" />
    <glyph glyph-name="hyphen" unicode="-" horiz-adv-x="278" 
d="M66 367h145q17 0 17 -15q0 -17 -17 -17h-145q-16 0 -16 17q0 6 4.5 10.5t11.5 4.5z" />
    <glyph glyph-name="period" unicode="." horiz-adv-x="136" 
d="M62 52q11 0 18.5 -7.5t7.5 -18.5q0 -10 -8 -18t-18 -8t-18 8t-8 18t8 18t18 8z" />
    <glyph glyph-name="slash" unicode="/" horiz-adv-x="388" 
d="M66 0q-3 0 -7 2q-9 5 -9 14q0 4 1 6l257 668q3 11 14 11q1 0 3.5 -0.5t3.5 -0.5q9 -4 9 -16q0 -1 -0.5 -2.5t-0.5 -2.5l-257 -669q-3 -10 -14 -10z" />
    <glyph glyph-name="zero" unicode="0" horiz-adv-x="442" 
d="M382 146q0 -67 -41 -108q-36 -38 -99 -38h-43q-61 0 -98 37q-41 41 -41 109v415q0 66 40 108q37 37 100 37h43q62 0 99 -37q40 -41 40 -109v-414zM91 145q0 -38 20 -70l191 585q-24 15 -59 15h-44q-48 0 -76 -28q-32 -33 -32 -87v-334v-81zM319 59q32 34 32 87v82v332
q0 44 -24 77q-144 -441 -189 -578l-3 -10q25 -18 65 -18h43q48 0 76 28z" />
    <glyph glyph-name="one" unicode="1" horiz-adv-x="303" 
d="M243 691v-675q0 -16 -16 -16q-14 0 -16 16v646l-188 -135q-5 -3 -9 -3q-8 0 -13 7q-3 5 -3 10q0 7 6 12l211 151q4 3 12 3q16 0 16 -16z" />
    <glyph glyph-name="two" unicode="2" horiz-adv-x="451" 
d="M388 34q16 0 16 -16t-16 -16h-313q-6 0 -10.5 4.5t-4.5 11.5v170v5q0 62 40 102q36 37 97 37h69h1q1 1 2 1q48 0 75 27q31 32 31 87v114q0 53 -31 85q-28 28 -75 28h-72q-47 0 -75 -28q-31 -32 -31 -85q0 -3 -4 -7t-7.5 -6.5t-4.5 -2.5q-15 0 -15 15v5q0 63 40 103
q36 37 97 37h72q61 0 97 -37q40 -40 40 -103v-5v-35v-79v-5q0 -63 -40 -103q-36 -37 -97 -37h-72q-48 0 -75 -28q-31 -31 -31 -85v-154h297z" />
    <glyph glyph-name="three" unicode="3" horiz-adv-x="409" 
d="M349 144q0 -67 -40 -108q-37 -37 -98 -37h-71q-61 0 -98 37q-40 42 -40 108q2 16 16 16q7 0 11.5 -5.5t4.5 -11.5q0 -53 31 -85q27 -27 75 -27h71q49 0 75 27q32 33 32 86v35v101q0 53 -32 85q-25 28 -75 28h-48q-7 0 -11 4q-7 4 -7 13q0 4 2 8l155 253h-282
q-7 0 -11.5 4.5t-4.5 10.5q0 16 16 16h312h3q1 -1 3 -1l2 -2q3 -2 3 -3q2 -2 2 -3q1 -1 1 -3v-3v-3q0 -3 -1 -3q0 -1 -1 -3l-156 -254h23q62 0 98 -37q40 -40 40 -109v-134z" />
    <glyph glyph-name="four" unicode="4" horiz-adv-x="413" 
d="M352 290h59q16 0 16 -16t-16 -16h-59v-240q0 -16 -16 -16t-16 16v240h-286q-6 0 -12 6q-5 5 -5 12q0 6 3 10q175 240 281 385q17 24 20 28l3 4q6 6 13 6q6 0 10.5 -4.5t4.5 -11.5v-403zM321 648l-257 -358h202h55v358z" />
    <glyph glyph-name="five" unicode="5" horiz-adv-x="470" 
d="M407 280v-135q0 -65 -40 -107q-37 -37 -98 -37h-71q-61 0 -98 37q-40 42 -40 108q0 16 16 16q6 0 10.5 -4.5t4.5 -11.5q0 -53 32 -86q25 -27 75 -27h71q48 0 75 27q31 32 31 86v35v102q0 53 -31 84q-27 28 -76 28h-208v293q0 16 17 16h317q16 0 16 -16q0 -6 -4.5 -10.5
t-11.5 -4.5h-303v-247h178q62 0 98 -37q40 -41 40 -109z" />
    <glyph glyph-name="six" unicode="6" horiz-adv-x="485" 
d="M409 544q-16 0 -16 17q0 52 -31 84q-28 28 -75 28h-88q-48 0 -76 -28q-15 -15 -23 -36.5t-8 -35.5l-1 -14v-148h194q63 0 99 -37q40 -41 40 -109v-37v-82q0 -66 -40 -107q-36 -38 -99 -38h-86q-61 0 -99 38q-40 41 -40 109v21v390q0 66 40 108q37 37 99 37h88
q62 0 98 -37q40 -42 40 -108q0 -13 -16 -15zM274 380h-183v-152v-80q0 -54 32 -87q27 -28 76 -28h86q49 0 76 28q32 32 32 86v20v99q0 54 -32 86q-27 28 -76 28h-11z" />
    <glyph glyph-name="seven" unicode="7" horiz-adv-x="357" 
d="M323 687l-197 -674q-3 -13 -15 -13h-3l-1 1q-12 3 -12 19l193 655h-293q-16 0 -16 16q0 6 4.5 10.5t11.5 4.5q48 0 150.5 0.5t160.5 0.5q4 0 6 -1q11 -3 11 -15v-4z" />
    <glyph glyph-name="eight" unicode="8" horiz-adv-x="484" 
d="M424 227v-82q0 -66 -40 -107q-37 -37 -99 -37h-20q-1 -1 -3 -1h-63q-63 0 -99 38q-40 41 -40 109v19v100q0 66 40 107q14 14 29 22q-11 5 -29 21q-40 41 -40 110v9v27q0 66 40 107q36 38 99 38h22h64q61 0 99 -38q40 -41 40 -110v-36q0 -65 -40 -106q-14 -14 -29 -22
q15 -8 29 -22q40 -41 40 -109v-37zM123 438q25 -25 70 -28q2 1 6 1h22h70q45 1 70 28q32 32 32 86v10v27q0 53 -32 85q-27 28 -76 28h-86q-49 0 -76 -28q-32 -32 -32 -88v-35q0 -54 32 -86zM361 60q15 15 23 36.5t8 35.5l1 14v20v99q0 54 -32 86q-26 28 -70 28h-98
q-43 -1 -70 -28q-32 -32 -32 -86v-38v-81q0 -54 32 -86q27 -28 76 -28h22h64q49 0 76 28z" />
    <glyph glyph-name="nine" unicode="9" horiz-adv-x="468" 
d="M408 423q0 -60 -34 -101l-179 -315q-5 -7 -13 -7q-5 0 -8 3q-8 5 -8 13q0 4 3 9l141 257q-16 -4 -40 -4h-72q-62 0 -98 37q-40 41 -40 109v135q0 66 40 107q36 37 98 37h71q62 0 98 -37q40 -41 40 -108v-30q1 -2 1 -5v-100zM249 309h21q47 0 75 28l6 6q25 31 25 79v57v79
q0 53 -32 86q-28 28 -75 28h-71q-47 0 -75 -28q-31 -32 -31 -85v-36v-101q0 -53 31 -85q27 -27 75 -27q43 0 51 -1z" />
    <glyph glyph-name="colon" unicode=":" horiz-adv-x="127" 
d="M64 52q11 0 18.5 -7.5t7.5 -18.5q0 -10 -8 -18t-18 -8t-18 8t-8 18t8 18t18 8zM70 338q11 0 18.5 -7.5t7.5 -18.5q0 -10 -8 -18t-18 -8t-18 8t-8 18t8 18t18 8z" />
    <glyph glyph-name="semicolon" unicode=";" horiz-adv-x="139" 
d="M70 338q11 0 18.5 -7.5t7.5 -18.5q0 -10 -8 -18t-18 -8t-18 8t-8 18t8 18t18 8zM75 50h4q11 -5 11 -16v-4l-29 -91q-3 -11 -15 -11q-3 0 -4 1q-12 3 -12 15v2l1 2l29 91q3 11 15 11z" />
    <glyph glyph-name="less" unicode="&#x3c;" horiz-adv-x="265" 
d="M95 301l-11 10l-29 30l-5 8v3q0 2 5 12l133 132q3 5 11 5q6 0 11 -5t5 -11q-4 -10 -5 -11l-30 -30l-10 -10l-45 -45l-37 -36l122 -122q4 -4 4 -11t-4 -11q-5 -5 -11 -5q-9 1 -11 5l-47 47z" />
    <glyph glyph-name="equal" unicode="=" 
d="M65 456h331q15 0 15 -17q0 -6 -4.5 -10.5t-10.5 -4.5h-331q-6 0 -10.5 4.5t-4.5 10.5q0 17 15 17zM65 283h331q6 0 10.5 -4.5t4.5 -11.5q0 -6 -4.5 -10.5t-10.5 -4.5h-331q-6 0 -10.5 4.5t-4.5 10.5q0 7 4.5 11.5t10.5 4.5z" />
    <glyph glyph-name="greater" unicode="&#x3e;" horiz-adv-x="265" 
d="M181 311l-11 -10l-46 -45l-47 -47q-2 -4 -11 -5q-6 0 -11 5q-4 4 -4 11t4 11l122 122l-37 36l-45 45l-10 10l-30 30q-1 1 -5 11q0 6 5 11t11 5q8 0 11 -5l133 -132q5 -10 5 -12v-3l-5 -8z" />
    <glyph glyph-name="question" unicode="?" horiz-adv-x="438" 
d="M201 53q11 0 18.5 -7.5t7.5 -18.5t-7.5 -18.5t-18.5 -7.5t-18.5 7.5t-7.5 18.5t7.5 18.5t18.5 7.5zM402 483q0 -68 -40 -108q-30 -30 -67 -63.5t-47 -43.5q-31 -31 -31 -96q0 -6 -4.5 -10.5t-11.5 -4.5q-16 0 -16 17q0 76 40 116q12 11 52 47.5t63 59.5q31 31 31 87v73
q0 53 -31 85q-28 28 -76 28h-71q-48 0 -76 -28q-31 -32 -31 -86v-80q0 -6 -4.5 -10.5t-11.5 -4.5q-6 0 -10.5 4.5t-4.5 10.5v80v5q0 63 40 103q37 37 98 37h71q61 0 98 -37q40 -41 40 -109v-72z" />
    <glyph glyph-name="at" unicode="@" horiz-adv-x="458" 
d="M396 32q6 0 10.5 -4.5t4.5 -11.5t-4.5 -11.5t-10.5 -4.5h-207q-62 0 -98 38q-41 42 -41 107v411q0 66 41 107q36 38 98 38h85q62 0 98 -38q39 -39 39 -108v-461q0 -15 -16 -15h-127q-62 0 -98 38q-40 41 -40 108v78q0 65 40 106q36 36 98 36h113l-1 116q0 49 -31 81
q-27 27 -75 27h-85q-49 0 -76 -27q-31 -32 -31 -85v-332v-80q0 -53 31 -86q27 -27 76 -27h207zM192 138q27 -27 76 -27h113v304h-113q-47 0 -76 -29q-30 -31 -30 -84v-78q0 -55 30 -86z" />
    <glyph glyph-name="A" unicode="A" 
d="M371 663q40 -41 40 -109v-539q0 -6 -4.5 -10.5t-10.5 -4.5q-7 0 -11.5 4.5t-4.5 10.5v280h-299v-280q0 -6 -4.5 -10.5t-11.5 -4.5q-6 0 -10.5 4.5t-4.5 10.5v541q0 65 40 107q37 37 98 37h85q61 0 98 -37zM81 326h299v230q0 53 -32 85q-26 28 -75 28h-85q-48 0 -76 -28
q-31 -32 -31 -86v-229z" />
    <glyph glyph-name="B" unicode="B" horiz-adv-x="446" 
d="M411 225v-81q0 -66 -40 -106q-36 -37 -98 -37h-64h-143q-7 0 -11.5 4.5t-4.5 10.5v541q0 65 40 107q37 37 98 37h85q61 0 98 -37q40 -41 40 -110v-35q0 -65 -40 -106q-11 -13 -28 -21q18 -11 28 -22q40 -40 40 -108v-37zM113 642q-32 -33 -32 -86v-149h129h69q43 1 70 28
q31 32 31 86v10v26q0 53 -31 85q-28 28 -76 28h-85q-47 0 -75 -28zM349 59q31 32 31 86v80v38q0 53 -31 85q-26 28 -70 28h-198v-344h182h10q49 0 76 27z" />
    <glyph glyph-name="C" unicode="C" horiz-adv-x="458" 
d="M414 145q0 -67 -41 -108q-36 -37 -98 -37h-87q-62 0 -98 37q-40 41 -40 108v5v406q0 65 40 107q24 23 55 31q21 6 43 6h75q61 0 98 -37q40 -40 40 -104v-5q0 -6 -4.5 -10.5t-11.5 -4.5q-15 0 -15 17q0 53 -31 85q-27 27 -72 27h-79q-21 0 -36 -4q-26 -9 -39 -23
q-32 -32 -32 -86v-410q0 -54 32 -87q27 -27 75 -27h87q49 0 76 28q31 32 31 85q0 16 18 16q12 0 14 -15z" />
    <glyph glyph-name="D" unicode="D" horiz-adv-x="458" 
d="M416 147q0 -67 -40 -109q-36 -37 -98 -37h-14h-196q-7 0 -11.5 4.5t-4.5 10.5v669q0 16 16 16h210q61 0 98 -37q40 -41 40 -109v-408zM353 60q15 15 23 36t8 35l1 14q0 3 -1 4v411q0 51 -31 82q-28 28 -75 28h-195v-638h138h57q48 0 75 28z" />
    <glyph glyph-name="E" unicode="E" horiz-adv-x="446" 
d="M395 31q16 0 16 -16q0 -6 -4.5 -10.5t-11.5 -4.5h-133h-196q-7 0 -11.5 4.5t-4.5 10.5v541q0 65 40 107q37 37 98 37h14h186q16 0 16 -16q0 -6 -4.5 -10.5t-11.5 -4.5h-143h-57q-47 0 -75 -28q-32 -32 -32 -86v-149h181q6 0 10.5 -4.5t4.5 -10.5q0 -7 -4.5 -11.5
t-10.5 -4.5h-181v-344h314z" />
    <glyph glyph-name="F" unicode="F" horiz-adv-x="412" 
d="M388 701q16 0 16 -16q0 -6 -4.5 -10.5t-11.5 -4.5h-200q-48 0 -76 -28q-31 -32 -31 -86v-149h181q6 0 10.5 -4.5t4.5 -10.5q0 -7 -4.5 -11.5t-10.5 -4.5h-181v-359q0 -16 -16 -16t-16 16q1 539 1 541q0 65 40 106q37 37 98 37h200z" />
    <glyph glyph-name="G" unicode="G" horiz-adv-x="458" 
d="M413 147q0 -67 -40 -108q-36 -37 -98 -37h-87q-62 0 -98 37q-40 41 -40 108v412q0 65 40 106q23 23 55 32q22 5 43 5h75q61 0 98 -37q40 -41 40 -108q0 -16 -16 -16q-15 2 -15 17q0 53 -32 85q-26 28 -75 28h-75q-18 0 -36 -5q-23 -6 -39 -23q-32 -32 -32 -86v-411
q0 -53 32 -85q27 -28 75 -28h87q49 0 76 28q31 31 31 83v103h-128q-7 0 -11.5 4.5t-4.5 10.5q0 16 16 16h143q6 0 12 -4q4 -4 4 -12v-115z" />
    <glyph glyph-name="H" unicode="H" 
d="M411 684v-669q0 -6 -4.5 -10.5t-10.5 -4.5q-7 0 -11.5 4.5t-4.5 10.5v358h-299v-358v-2q0 -13 -15 -13q-7 0 -11.5 4.5t-4.5 10.5v669q0 7 4.5 11.5t10.5 4.5q16 0 16 -16v-280h298v280q0 16 16 16t16 -16z" />
    <glyph glyph-name="I" unicode="I" horiz-adv-x="133" 
d="M83 691v-675q0 -16 -16 -16q-6 0 -10.5 4.5t-4.5 11.5q-2 4 -2 323q0 310 2 352q0 7 4.5 11.5t10.5 4.5q16 0 16 -16z" />
    <glyph glyph-name="J" unicode="J" horiz-adv-x="409" 
d="M359 684v-540q0 -65 -40 -107q-37 -37 -98 -37h-72q-61 0 -97 38q-40 40 -40 108q0 15 16 15q15 0 15 -17q0 -53 31 -85q27 -27 75 -27h72q48 0 75 27q31 32 31 86v539q0 16 16 16t16 -16z" />
    <glyph glyph-name="K" unicode="K" horiz-adv-x="447" 
d="M412 160v-144q0 -6 -4.5 -10.5t-11.5 -4.5q-14 0 -16 15v144q0 2 1 5v97q0 54 -32 87q-27 27 -77 27h-190v-360q0 -6 -4.5 -10.5t-11.5 -4.5t-11.5 4.5t-4.5 10.5v669q0 16 16 16q6 0 10.5 -4.5t4.5 -11.5v-278h189q43 3 68 28q31 32 31 86v35v129q0 16 16 16
q6 0 10.5 -4.5t4.5 -11.5q1 -144 1 -146v-19q0 -65 -41 -107q-12 -12 -23 -18q19 -9 35 -25q40 -41 40 -108v-102z" />
    <glyph glyph-name="L" unicode="L" horiz-adv-x="412" 
d="M388 0h-200q-61 0 -98 37q-40 41 -40 106v541q0 7 4.5 11.5t10.5 4.5q16 0 16 -16v-539q0 -54 31 -86q28 -28 76 -28h200q7 0 11.5 -4.5t4.5 -10.5q0 -16 -16 -16z" />
    <glyph glyph-name="M" unicode="M" horiz-adv-x="549" 
d="M484 700q15 0 15 -15v-669q0 -7 -4.5 -11.5t-10.5 -4.5q-16 0 -16 16v548l6 50l-12 -51l-172 -552q0 -11 -16 -11q-5 0 -8.5 3t-4.5 5l-1 3l-172 552l-12 51l6 -50v-548q0 -16 -16 -16q-14 0 -16 16v669q0 15 18 15q9 0 13 -11l64 -204l130 -416l145 466l48 154
q4 11 16 11z" />
    <glyph glyph-name="N" unicode="N" horiz-adv-x="460" 
d="M50 16v669q0 16 16 16q2 0 3 -1q1 0 2 0.5t2 0.5q9 0 13 -9l37 -77l244 -520l14 -36l-3 33v593q2 16 16 16q16 0 16 -16v-669q0 -16 -16 -16h-1q-1 1 -2 1t-2 -0.5t-2 -0.5q-9 0 -14 9l-15 34l-266 563l-14 36l3 -33v-593q0 -16 -16 -16q-6 0 -10.5 4.5t-4.5 11.5z" />
    <glyph glyph-name="O" unicode="O" 
d="M411 555v-412q0 -64 -40 -105q-36 -38 -98 -38h-85q-62 0 -98 38q-40 41 -40 108v411q0 65 40 106q36 38 98 38h85q62 0 98 -38q40 -40 40 -108zM349 59q31 32 31 86v412q0 53 -31 85q-27 27 -76 27h-85q-48 0 -75 -27q-32 -32 -32 -86v-411v0q0 -53 32 -86
q27 -27 75 -27h85q49 0 76 27z" />
    <glyph glyph-name="P" unicode="P" horiz-adv-x="446" 
d="M411 441q0 -66 -40 -108q-37 -37 -98 -37h-192v-280q0 -6 -4.5 -10.5t-11.5 -4.5q-6 0 -10.5 4.5t-4.5 10.5v542q0 65 40 106q37 37 98 37h85q61 0 98 -37q40 -41 40 -109v-16v-98zM348 355q32 32 32 86v35v80q0 53 -32 86q-28 28 -75 28h-85q-48 0 -76 -28
q-31 -32 -31 -86v-229h192q47 0 75 28z" />
    <glyph glyph-name="Q" unicode="Q" horiz-adv-x="462" 
d="M426 27q4 -4 4 -11t-4 -11q-4 -5 -13 -5q-6 2 -9 5q-32 32 -33 32q-36 -37 -97 -37h-86q-61 0 -98 37q-40 41 -40 108v411q0 65 41 106q36 38 97 38h86q60 0 97 -37q41 -43 41 -108v-413q0 -43 -21 -79zM274 31q47 0 76 28l-38 38l-12 10l-29 31q-4 4 -4 11q0 5 4 11
q4 4 11 4t11 -5l75 -73q12 27 12 58v412q0 53 -31 85q-28 28 -75 28h-86q-47 0 -75 -28q-31 -32 -31 -86v-411q0 -54 31 -85q27 -28 75 -28h86z" />
    <glyph glyph-name="R" unicode="R" horiz-adv-x="446" 
d="M51 700q2 0 4 -1q1 1 4 1h199q61 0 98 -37q40 -40 40 -103v-5v-80v-36v-5q0 -64 -40 -104q-10 -11 -28 -21q18 -11 28 -22q40 -40 40 -102v-5v-165q0 -6 -4.5 -10.5t-10.5 -4.5q-7 0 -11.5 4.5t-4.5 10.5v165q0 54 -31 86q-26 26 -70 27h-69h-129v-278q0 -6 -4.5 -10.5
t-10.5 -4.5q-7 0 -11.5 4.5t-4.5 10.5v669q0 16 16 16zM66 325h128h70q43 0 70 27q31 32 31 85v38v80q0 54 -31 86q-28 28 -76 28h-10h-182v-344z" />
    <glyph glyph-name="S" unicode="S" 
d="M414 145q0 -66 -40 -108q-37 -37 -98 -37h-89q-61 0 -98 37q-40 42 -40 108q0 7 5 11.5t11 4.5q16 -2 16 -17q0 -53 31 -85q27 -27 75 -27h89q48 0 75 27q31 32 31 86v35v87q0 53 -31 85q-27 27 -76 27h-79h-12q-60 2 -95 38q-35 35 -40 102v19v7q5 85 40 121
q36 37 98 37h89q62 0 98 -37q40 -42 40 -108q0 -15 -16 -15t-16 17q0 52 -31 84q-28 28 -75 28h-89q-49 0 -75 -28q-27 -27 -32 -101v-20q0 -52 31 -85q27 -27 78 -27h5h82q61 0 98 -37q40 -41 40 -109v-120z" />
    <glyph glyph-name="T" unicode="T" horiz-adv-x="439" 
d="M410 701q7 0 11.5 -4.5t4.5 -10.5q0 -16 -16 -16h-175v-653q0 -7 -4.5 -11.5t-10.5 -4.5q-16 0 -16 16v653h-175q-6 0 -10.5 4.5t-4.5 11.5q0 6 4.5 10.5t10.5 4.5h381z" />
    <glyph glyph-name="U" unicode="U" 
d="M411 691v-548q0 -64 -40 -106q-37 -37 -98 -37h-85q-61 0 -98 37q-40 40 -40 104v5v545q0 16 16 16q6 0 10.5 -4.5t4.5 -11.5v-547q0 -53 31 -85q27 -27 76 -27h85q48 0 75 27q31 32 31 82v4v546q0 16 16 16t16 -16z" />
    <glyph glyph-name="V" unicode="V" horiz-adv-x="406" 
d="M397 700q12 -3 12 -16v-4l-191 -668q-3 -12 -15 -12q-13 0 -15 12l-191 671q0 13 11 17h4q11 0 16 -11l175 -616l175 616q4 11 19 11z" />
    <glyph glyph-name="W" unicode="W" horiz-adv-x="567" 
d="M566 696q12 -5 12 -19l-160 -663q-1 -10 -11 -12l-396 -2l396 2q0 -1 -4 -1q-2 0 -3 1l-389 -2l389 2q-11 2 -12 12l-105 434l-104 -434q-1 -10 -12 -12l-156 -2l156 2q-2 -1 -4 -1q-3 0 -3 1l-149 -2l149 2q-10 2 -11 12l-160 663v4q0 11 14 15q13 0 16 -13l145 -599
l103 431l-39 164q0 11 14 17q15 0 17 -13l144 -599l144 599q3 13 19 13z" />
    <glyph glyph-name="X" unicode="X" horiz-adv-x="413" 
d="M391 23q2 -4 2 -7q0 -9 -10 -14q-4 -2 -6 -2q-11 0 -14 10l-157 338l-156 -338q-3 -10 -14 -10q-1 0 -7 2q-9 5 -9 14q0 3 2 7l167 362l-135 293q-2 4 -2 7q0 11 9 14q4 2 7 2q9 0 14 -9l124 -270l125 270q5 9 14 9q3 0 7 -2q9 -4 9 -14q0 -3 -2 -7l-135 -293z" />
    <glyph glyph-name="Y" unicode="Y" horiz-adv-x="372" 
d="M363 700q9 -4 9 -14q0 -3 -2 -7l-168 -365v-298q0 -16 -16 -16t-16 16v298l-169 365q-1 2 -1 6q0 11 9 15q2 1 7 1q10 0 14 -9l156 -338l156 338q4 9 14 9q5 0 7 -1z" />
    <glyph glyph-name="Z" unicode="Z" horiz-adv-x="413" 
d="M377 31q16 0 16 -16q0 -6 -4.5 -10.5t-11.5 -4.5h-313q-7 0 -11.5 4.5t-4.5 10.5q0 4 2 8l302 651q-12 0 -49 -1t-67 -1l-172 2q-7 0 -11.5 4.5t-4.5 10.5q0 14 16 16h313h4q2 -1 3 -2q9 -5 9 -13q0 -3 -2 -7l-302 -652h288z" />
    <glyph glyph-name="bracketleft" unicode="[" horiz-adv-x="132" 
d="M50 -105v913q0 4 1 5v0q3 10 12 10h4h143q5 0 9.5 -4.5t4.5 -10.5q0 -7 -4.5 -11.5t-9.5 -4.5h-128v-878h128q5 0 9.5 -4.5t4.5 -11.5t-4.5 -11.5t-9.5 -4.5h-143q-15 0 -17 13z" />
    <glyph glyph-name="backslash" unicode="\" horiz-adv-x="388" 
d="M322 0q-11 0 -14 10l-257 669q0 1 -0.5 2.5t-0.5 2.5q0 12 9 16q1 0 3.5 0.5t3.5 0.5q11 0 14 -11l257 -668q1 -2 1 -6q0 -9 -9 -14q-4 -2 -7 -2z" />
    <glyph glyph-name="bracketright" unicode="]" horiz-adv-x="132" 
d="M118 808v-913q-2 -13 -17 -13h-143q-5 0 -9.5 4.5t-4.5 11.5t4.5 11.5t9.5 4.5h128v878h-128q-5 0 -9.5 4.5t-4.5 11.5q0 6 4.5 10.5t9.5 4.5h143h4q9 0 12 -10v0q1 -1 1 -5z" />
    <glyph glyph-name="asciicircum" unicode="^" horiz-adv-x="265" 
d="M85 870l10 11l30 29q3 3 9 5h4q7 -2 10 -5l133 -132q4 -5 4 -12t-4 -11q-6 -4 -11 -4q-6 0 -12 4l-30 29l-10 12l-45 44l-36 37l-122 -122q-5 -5 -11 -5t-11 5t-5 11q1 8 5 12l47 47z" />
    <glyph glyph-name="underscore" unicode="_" horiz-adv-x="330" 
d="M1 34h329q17 0 17 -17q0 -15 -17 -15h-329q-7 0 -11.5 4.5t-4.5 10.5q0 17 16 17z" />
    <glyph glyph-name="grave" unicode="`" horiz-adv-x="134" 
d="M56 690l51 -138q1 -2 1 -5q0 -4 -2.5 -7.5t-4.5 -5t-3 -1.5q-2 -1 -6 -1q-12 0 -15 11l-51 138q-1 2 -1 5q0 4 2.5 7.5t5 5t3.5 1.5q2 1 5 1q12 0 15 -11z" />
    <glyph glyph-name="a" unicode="a" 
d="M371 663q40 -41 40 -109v-539q0 -6 -4.5 -10.5t-10.5 -4.5q-7 0 -11.5 4.5t-4.5 10.5v280h-299v-280q0 -6 -4.5 -10.5t-11.5 -4.5q-6 0 -10.5 4.5t-4.5 10.5v541q0 65 40 107q37 37 98 37h85q61 0 98 -37zM81 326h299v230q0 53 -32 85q-26 28 -75 28h-85q-48 0 -76 -28
q-31 -32 -31 -86v-229z" />
    <glyph glyph-name="b" unicode="b" horiz-adv-x="446" 
d="M411 225v-81q0 -66 -40 -106q-36 -37 -98 -37h-64h-143q-7 0 -11.5 4.5t-4.5 10.5v541q0 65 40 107q37 37 98 37h85q61 0 98 -37q40 -41 40 -110v-35q0 -65 -40 -106q-11 -13 -28 -21q18 -11 28 -22q40 -40 40 -108v-37zM113 642q-32 -33 -32 -86v-149h129h69q43 1 70 28
q31 32 31 86v10v26q0 53 -31 85q-28 28 -76 28h-85q-47 0 -75 -28zM349 59q31 32 31 86v80v38q0 53 -31 85q-26 28 -70 28h-198v-344h182h10q49 0 76 27z" />
    <glyph glyph-name="c" unicode="c" horiz-adv-x="458" 
d="M414 145q0 -67 -41 -108q-36 -37 -98 -37h-87q-62 0 -98 37q-40 41 -40 108v5v406q0 65 40 107q24 23 55 31q21 6 43 6h75q61 0 98 -37q40 -40 40 -104v-5q0 -6 -4.5 -10.5t-11.5 -4.5q-15 0 -15 17q0 53 -31 85q-27 27 -72 27h-79q-21 0 -36 -4q-26 -9 -39 -23
q-32 -32 -32 -86v-410q0 -54 32 -87q27 -27 75 -27h87q49 0 76 28q31 32 31 85q0 16 18 16q12 0 14 -15z" />
    <glyph glyph-name="d" unicode="d" horiz-adv-x="458" 
d="M416 147q0 -67 -40 -109q-36 -37 -98 -37h-14h-196q-7 0 -11.5 4.5t-4.5 10.5v669q0 16 16 16h210q61 0 98 -37q40 -41 40 -109v-408zM353 60q15 15 23 36t8 35l1 14q0 3 -1 4v411q0 51 -31 82q-28 28 -75 28h-195v-638h138h57q48 0 75 28z" />
    <glyph glyph-name="e" unicode="e" horiz-adv-x="446" 
d="M395 31q16 0 16 -16q0 -6 -4.5 -10.5t-11.5 -4.5h-133h-196q-7 0 -11.5 4.5t-4.5 10.5v541q0 65 40 107q37 37 98 37h14h186q16 0 16 -16q0 -6 -4.5 -10.5t-11.5 -4.5h-143h-57q-47 0 -75 -28q-32 -32 -32 -86v-149h181q6 0 10.5 -4.5t4.5 -10.5q0 -7 -4.5 -11.5
t-10.5 -4.5h-181v-344h314z" />
    <glyph glyph-name="f" unicode="f" horiz-adv-x="412" 
d="M388 701q16 0 16 -16q0 -6 -4.5 -10.5t-11.5 -4.5h-200q-48 0 -76 -28q-31 -32 -31 -86v-149h181q6 0 10.5 -4.5t4.5 -10.5q0 -7 -4.5 -11.5t-10.5 -4.5h-181v-359q0 -16 -16 -16t-16 16q1 539 1 541q0 65 40 106q37 37 98 37h200z" />
    <glyph glyph-name="g" unicode="g" horiz-adv-x="458" 
d="M413 147q0 -67 -40 -108q-36 -37 -98 -37h-87q-62 0 -98 37q-40 41 -40 108v412q0 65 40 106q23 23 55 32q22 5 43 5h75q61 0 98 -37q40 -41 40 -108q0 -16 -16 -16q-15 2 -15 17q0 53 -32 85q-26 28 -75 28h-75q-18 0 -36 -5q-23 -6 -39 -23q-32 -32 -32 -86v-411
q0 -53 32 -85q27 -28 75 -28h87q49 0 76 28q31 31 31 83v103h-128q-7 0 -11.5 4.5t-4.5 10.5q0 16 16 16h143q6 0 12 -4q4 -4 4 -12v-115z" />
    <glyph glyph-name="h" unicode="h" 
d="M411 684v-669q0 -6 -4.5 -10.5t-10.5 -4.5q-7 0 -11.5 4.5t-4.5 10.5v358h-299v-358v-2q0 -13 -15 -13q-7 0 -11.5 4.5t-4.5 10.5v669q0 7 4.5 11.5t10.5 4.5q16 0 16 -16v-280h298v280q0 16 16 16t16 -16z" />
    <glyph glyph-name="i" unicode="i" horiz-adv-x="133" 
d="M83 691v-675q0 -16 -16 -16q-6 0 -10.5 4.5t-4.5 11.5q-2 4 -2 323q0 310 2 352q0 7 4.5 11.5t10.5 4.5q16 0 16 -16z" />
    <glyph glyph-name="j" unicode="j" horiz-adv-x="409" 
d="M359 684v-540q0 -65 -40 -107q-37 -37 -98 -37h-72q-61 0 -97 38q-40 40 -40 108q0 15 16 15q15 0 15 -17q0 -53 31 -85q27 -27 75 -27h72q48 0 75 27q31 32 31 86v539q0 16 16 16t16 -16z" />
    <glyph glyph-name="k" unicode="k" horiz-adv-x="447" 
d="M412 160v-144q0 -6 -4.5 -10.5t-11.5 -4.5q-14 0 -16 15v144q0 2 1 5v97q0 54 -32 87q-27 27 -77 27h-190v-360q0 -6 -4.5 -10.5t-11.5 -4.5t-11.5 4.5t-4.5 10.5v669q0 16 16 16q6 0 10.5 -4.5t4.5 -11.5v-278h189q43 3 68 28q31 32 31 86v35v129q0 16 16 16
q6 0 10.5 -4.5t4.5 -11.5q1 -144 1 -146v-19q0 -65 -41 -107q-12 -12 -23 -18q19 -9 35 -25q40 -41 40 -108v-102z" />
    <glyph glyph-name="l" unicode="l" horiz-adv-x="412" 
d="M388 0h-200q-61 0 -98 37q-40 41 -40 106v541q0 7 4.5 11.5t10.5 4.5q16 0 16 -16v-539q0 -54 31 -86q28 -28 76 -28h200q7 0 11.5 -4.5t4.5 -10.5q0 -16 -16 -16z" />
    <glyph glyph-name="m" unicode="m" horiz-adv-x="549" 
d="M484 700q15 0 15 -15v-669q0 -7 -4.5 -11.5t-10.5 -4.5q-16 0 -16 16v548l6 50l-12 -51l-172 -552q0 -11 -16 -11q-5 0 -8.5 3t-4.5 5l-1 3l-172 552l-12 51l6 -50v-548q0 -16 -16 -16q-14 0 -16 16v669q0 15 18 15q9 0 13 -11l64 -204l130 -416l145 466l48 154
q4 11 16 11z" />
    <glyph glyph-name="n" unicode="n" horiz-adv-x="460" 
d="M50 16v669q0 16 16 16q2 0 3 -1q1 0 2 0.5t2 0.5q9 0 13 -9l37 -77l244 -520l14 -36l-3 33v593q2 16 16 16q16 0 16 -16v-669q0 -16 -16 -16h-1q-1 1 -2 1t-2 -0.5t-2 -0.5q-9 0 -14 9l-15 34l-266 563l-14 36l3 -33v-593q0 -16 -16 -16q-6 0 -10.5 4.5t-4.5 11.5z" />
    <glyph glyph-name="o" unicode="o" 
d="M411 555v-412q0 -64 -40 -105q-36 -38 -98 -38h-85q-62 0 -98 38q-40 41 -40 108v411q0 65 40 106q36 38 98 38h85q62 0 98 -38q40 -40 40 -108zM349 59q31 32 31 86v412q0 53 -31 85q-27 27 -76 27h-85q-48 0 -75 -27q-32 -32 -32 -86v-411v0q0 -53 32 -86
q27 -27 75 -27h85q49 0 76 27z" />
    <glyph glyph-name="p" unicode="p" horiz-adv-x="446" 
d="M411 441q0 -66 -40 -108q-37 -37 -98 -37h-192v-280q0 -6 -4.5 -10.5t-11.5 -4.5q-6 0 -10.5 4.5t-4.5 10.5v542q0 65 40 106q37 37 98 37h85q61 0 98 -37q40 -41 40 -109v-16v-98zM348 355q32 32 32 86v35v80q0 53 -32 86q-28 28 -75 28h-85q-48 0 -76 -28
q-31 -32 -31 -86v-229h192q47 0 75 28z" />
    <glyph glyph-name="q" unicode="q" horiz-adv-x="462" 
d="M426 27q4 -4 4 -11t-4 -11q-4 -5 -13 -5q-6 2 -9 5q-32 32 -33 32q-36 -37 -97 -37h-86q-61 0 -98 37q-40 41 -40 108v411q0 65 41 106q36 38 97 38h86q60 0 97 -37q41 -43 41 -108v-413q0 -43 -21 -79zM274 31q47 0 76 28l-38 38l-12 10l-29 31q-4 4 -4 11q0 5 4 11
q4 4 11 4t11 -5l75 -73q12 27 12 58v412q0 53 -31 85q-28 28 -75 28h-86q-47 0 -75 -28q-31 -32 -31 -86v-411q0 -54 31 -85q27 -28 75 -28h86z" />
    <glyph glyph-name="r" unicode="r" horiz-adv-x="446" 
d="M51 700q2 0 4 -1q1 1 4 1h199q61 0 98 -37q40 -40 40 -103v-5v-80v-36v-5q0 -64 -40 -104q-10 -11 -28 -21q18 -11 28 -22q40 -40 40 -102v-5v-165q0 -6 -4.5 -10.5t-10.5 -4.5q-7 0 -11.5 4.5t-4.5 10.5v165q0 54 -31 86q-26 26 -70 27h-69h-129v-278q0 -6 -4.5 -10.5
t-10.5 -4.5q-7 0 -11.5 4.5t-4.5 10.5v669q0 16 16 16zM66 325h128h70q43 0 70 27q31 32 31 85v38v80q0 54 -31 86q-28 28 -76 28h-10h-182v-344z" />
    <glyph glyph-name="s" unicode="s" 
d="M414 145q0 -66 -40 -108q-37 -37 -98 -37h-89q-61 0 -98 37q-40 42 -40 108q0 7 5 11.5t11 4.5q16 -2 16 -17q0 -53 31 -85q27 -27 75 -27h89q48 0 75 27q31 32 31 86v35v87q0 53 -31 85q-27 27 -76 27h-79h-12q-60 2 -95 38q-35 35 -40 102v19v7q5 85 40 121
q36 37 98 37h89q62 0 98 -37q40 -42 40 -108q0 -15 -16 -15t-16 17q0 52 -31 84q-28 28 -75 28h-89q-49 0 -75 -28q-27 -27 -32 -101v-20q0 -52 31 -85q27 -27 78 -27h5h82q61 0 98 -37q40 -41 40 -109v-120z" />
    <glyph glyph-name="t" unicode="t" horiz-adv-x="439" 
d="M410 701q7 0 11.5 -4.5t4.5 -10.5q0 -16 -16 -16h-175v-653q0 -7 -4.5 -11.5t-10.5 -4.5q-16 0 -16 16v653h-175q-6 0 -10.5 4.5t-4.5 11.5q0 6 4.5 10.5t10.5 4.5h381z" />
    <glyph glyph-name="u" unicode="u" 
d="M411 691v-548q0 -64 -40 -106q-37 -37 -98 -37h-85q-61 0 -98 37q-40 40 -40 104v5v545q0 16 16 16q6 0 10.5 -4.5t4.5 -11.5v-547q0 -53 31 -85q27 -27 76 -27h85q48 0 75 27q31 32 31 82v4v546q0 16 16 16t16 -16z" />
    <glyph glyph-name="v" unicode="v" horiz-adv-x="406" 
d="M397 700q12 -3 12 -16v-4l-191 -668q-3 -12 -15 -12q-13 0 -15 12l-191 671q0 13 11 17h4q11 0 16 -11l175 -616l175 616q4 11 19 11z" />
    <glyph glyph-name="w" unicode="w" horiz-adv-x="567" 
d="M568 694q12 -3 12 -19l-160 -662q-1 -10 -12 -12v0l-1 -1h-1h-1h-1h-1q-1 0 -1 0.5t-1 0.5v0q-9 1 -12 12l-104 434l-105 -434q-4 -13 -17 -13l-2 1v0q-9 1 -12 12l-159 662v4q0 11 12 15h4q12 0 15 -12l144 -599l103 431l-38 161v4q0 11 12 15h4q12 0 15 -12l144 -599
l144 599q3 12 19 12z" />
    <glyph glyph-name="x" unicode="x" horiz-adv-x="413" 
d="M391 23q2 -4 2 -7q0 -9 -10 -14q-4 -2 -6 -2q-11 0 -14 10l-157 338l-156 -338q-3 -10 -14 -10q-1 0 -7 2q-9 5 -9 14q0 3 2 7l167 362l-135 293q-2 4 -2 7q0 11 9 14q4 2 7 2q9 0 14 -9l124 -270l125 270q5 9 14 9q3 0 7 -2q9 -4 9 -14q0 -3 -2 -7l-135 -293z" />
    <glyph glyph-name="y" unicode="y" horiz-adv-x="372" 
d="M363 700q9 -4 9 -14q0 -3 -2 -7l-168 -365v-298q0 -16 -16 -16t-16 16v298l-169 365q-1 2 -1 6q0 11 9 15q2 1 7 1q10 0 14 -9l156 -338l156 338q4 9 14 9q5 0 7 -1z" />
    <glyph glyph-name="z" unicode="z" horiz-adv-x="413" 
d="M377 31q16 0 16 -16q0 -6 -4.5 -10.5t-11.5 -4.5h-313q-7 0 -11.5 4.5t-4.5 10.5q0 4 2 8l302 651q-12 0 -49 -1t-67 -1l-172 2q-7 0 -11.5 4.5t-4.5 10.5q0 14 16 16h313h4q2 -1 3 -2q9 -5 9 -13q0 -3 -2 -7l-302 -652h288z" />
    <glyph glyph-name="braceleft" unicode="{" horiz-adv-x="191" 
d="M234 -87q6 0 10.5 -4.5t4.5 -11.5q0 -6 -4.5 -10.5t-10.5 -4.5q-62 0 -98 37q-41 41 -41 108v186l-43 43l-45 45l-11 10l-29 30q-4 4 -4 8v4q0 7 4 10l128 129v187q0 65 40 107q23 23 56 32q22 5 43 5q6 0 10.5 -4.5t4.5 -11.5q0 -11 -11 -15h-5q-13 0 -33 -4
q-26 -8 -42 -24q-31 -32 -31 -86v-196q-2 -6 -5 -8l-29 -30l-11 -10l-45 -45l-37 -37l122 -122q4 -2 5 -12v-192q0 -54 31 -86q27 -27 76 -27z" />
    <glyph glyph-name="bar" unicode="|" horiz-adv-x="162" 
d="M93 807v-911q0 -17 -13 -17t-13 17v911q0 15 13 15t13 -15z" />
    <glyph glyph-name="braceright" unicode="}" horiz-adv-x="191" 
d="M-43 -87q49 0 76 27q31 32 31 86v192q1 10 5 12l122 122l-37 37l-45 45l-11 10l-29 30q-3 2 -5 8v196q0 54 -31 86q-17 16 -42 24q-20 4 -33 4h-5q-11 4 -11 15q0 7 4.5 11.5t10.5 4.5q21 0 43 -5q33 -9 56 -32q40 -42 40 -107v-187l128 -129q4 -3 4 -10v-4q0 -4 -4 -8
l-29 -30l-11 -10l-45 -45l-43 -43v-186q0 -67 -41 -108q-36 -37 -98 -37q-6 0 -10.5 4.5t-4.5 10.5q0 7 4.5 11.5t10.5 4.5z" />
    <glyph glyph-name="asciitilde" unicode="~" horiz-adv-x="460" 
d="M326 287q-49 0 -94 43l-27 27q-31 31 -67 31q-45 0 -91 -46q-5 -5 -11 -5t-11 5t-5 11t5 11q55 55 113 55q49 0 89 -40l27 -27q33 -33 72 -33q44 0 87 43q4 4 11 4t11 -4q5 -5 5 -11t-5 -11q-53 -53 -109 -53z" />
    <glyph glyph-name="uni00A0" unicode="&#xa0;" horiz-adv-x="0" 
 />
    <glyph glyph-name="currency" unicode="&#xa4;" horiz-adv-x="260" 
d="M195 304l30 -31q3 -3 3 -8t-4 -9q-3 -3 -8 -3q-4 0 -9 3l-30 31q-21 -16 -47 -16t-47 16l-31 -30q-3 -3 -8 -3q-6 0 -9 4q-3 3 -3 8q0 4 3 9l31 30q-16 21 -16 47t16 47l-30 31q-3 3 -3 8t4 9q3 3 8 3t9 -3l30 -31q21 16 46 16q27 0 48 -16l31 30q3 3 8 3t9 -4q3 -3 3 -8
q0 -6 -3 -9l-31 -30q15 -20 15 -46q0 -28 -15 -48zM74 352q0 -23 16.5 -40t39.5 -17t40 17t17 40t-17 39.5t-40 16.5q-22 0 -39 -17t-17 -39z" />
    <glyph glyph-name="brokenbar" unicode="&#xa6;" horiz-adv-x="833" 
 />
    <glyph glyph-name="section" unicode="&#xa7;" horiz-adv-x="385" 
d="M350 327v-217q-5 -44 -43 -77t-93 -33h-110q-7 0 -11.5 4.5t-4.5 10.5q0 16 16 16h110q50 0 77 30t27 71q0 40 -27 70t-77 30h-43q-61 0 -97 36q-39 42 -39 107v200q0 2 1 3q2 48 33 83q39 42 101 42h111q16 0 16 -16t-16 -16h-111q-50 0 -76.5 -30t-26.5 -71
q0 -38 25 -67.5t71 -32.5h51q62 0 96 -36q40 -40 40 -107zM214 264q67 0 104 -45v110q0 52 -30 83q-26 26 -69 26h-49q-65 0 -103 45v-109q0 -52 30 -84q26 -26 69 -26h48z" />
    <glyph glyph-name="copyright" unicode="&#xa9;" horiz-adv-x="324" 
d="M204 547q12 0 12 -12q0 -20 -13 -33q-12 -12 -30 -12h-6h-16q-17 0 -31 12q-12 14 -12 34v78q0 20 12 33q6 6 16 10q8 2 15 2h19q18 0 30 -12q13 -13 13 -33q0 -12 -13 -12q-11 0 -11 12q0 11 -6 16q-5 5 -13 5h-5h-14q-5 0 -7 -1l-7 -4q-2 -4 -3 -4q0 -6 -2 -6v-6v-7
v-52v-20q0 -10 6 -16q5 -5 13 -5h7h15q8 0 13 5q6 6 6 16t12 12zM162 701q52 0 89.5 -37t37.5 -89q0 -53 -37.5 -90t-89.5 -37t-89.5 37t-37.5 90q0 52 37.5 89t89.5 37zM162 472q42 0 72.5 30t30.5 73q0 42 -30.5 72t-72.5 30q-43 0 -73 -30t-30 -72q0 -43 30 -73t73 -30z
" />
    <glyph glyph-name="guillemotleft" unicode="&#xab;" horiz-adv-x="368" 
d="M199 301l-11 10l-29 31q-2 1 -5 8v3q0 8 5 11l132 133q6 4 11 4q6 0 12 -4q5 -8 5 -10q0 -1 -1 -3q0 -4 -4 -10l-30 -29l-10 -11l-45 -44l-37 -38l122 -121q4 -4 4 -11t-4 -11q-5 -5 -11 -5q-5 0 -12 5l-47 47zM50 353q0 8 4 11l133 133q6 4 11 4q3 0 11 -4q4 -4 4 -10
q0 -9 -4 -13l-29 -29l-12 -11l-44 -44l-37 -38l126 -117q1 -3 1 -10q0 -11 -5 -16t-12 -5q-5 0 -10 5l-48 47l-45 45l-11 10l-29 31q-4 4 -4 8v3z" />
    <glyph glyph-name="logicalnot" unicode="&#xac;" horiz-adv-x="549" 
d="M499 425v-146q0 -14 -15 -16q-16 0 -16 16v130h-402q-16 0 -16 16t16 16h418q6 0 10.5 -4.5t4.5 -11.5z" />
    <glyph glyph-name="uni00AD" unicode="&#xad;" horiz-adv-x="278" 
d="M66 367h145q17 0 17 -15q0 -17 -17 -17h-145q-16 0 -16 17q0 6 4.5 10.5t11.5 4.5z" />
    <glyph glyph-name="registered" unicode="&#xae;" horiz-adv-x="324" 
d="M216 614v-5v-8q0 -20 -12 -33q12 -13 12 -33v-33q0 -12 -12 -12t-12 12v34q0 10 -6 16q-4 4 -13 4h-16h-25v-54q0 -12 -12 -12q-4 0 -8 4t-4 8v145q0 12 14 12h35h16q17 0 31 -12q12 -13 12 -33zM132 635v-55h25h16q8 0 13 5q6 6 6 17v12q0 11 -6 16q-5 5 -16 5h-38z
M162 701q52 0 89.5 -37t37.5 -89q0 -53 -37.5 -90t-89.5 -37t-89.5 37t-37.5 90q0 52 37.5 89t89.5 37zM162 472q43 0 73 30t30 73q0 42 -30 72t-73 30q-42 0 -72.5 -30t-30.5 -72q0 -43 30.5 -73t72.5 -30z" />
    <glyph glyph-name="degree" unicode="&#xb0;" horiz-adv-x="279" 
d="M139 555q-31 0 -52.5 21.5t-21.5 52.5t21.5 52.5t52.5 21.5t53 -21.5t22 -52.5t-22 -52.5t-53 -21.5zM139 673q-19 0 -32 -13t-13 -31q0 -19 13 -32t32 -13t31.5 13t12.5 32q0 18 -12.5 31t-31.5 13z" />
    <glyph glyph-name="plusminus" unicode="&#xb1;" 
d="M396 406q13 0 15 -15q0 -17 -15 -17h-149v-149q0 -15 -17 -15q-6 0 -10.5 4.5t-4.5 10.5v149h-149q-16 0 -16 17q0 6 4.5 10.5t11.5 4.5h149v149q0 7 4.5 12t10.5 5q7 0 12 -5t5 -12v-149h149zM65 164h330q6 0 10.5 -4.5t4.5 -11.5q0 -6 -4.5 -10.5t-10.5 -4.5h-330
q-17 0 -17 15q0 16 17 16z" />
    <glyph glyph-name="mu" unicode="&#xb5;" horiz-adv-x="833" 
 />
    <glyph glyph-name="mu" unicode="&#x3bc;" horiz-adv-x="833" 
 />
    <glyph glyph-name="paragraph" unicode="&#xb6;" horiz-adv-x="412" 
d="M362 683v-668q0 -14 -16 -16q-16 0 -16 16v653h-64v-653q0 -12 -12 -15q-1 -1 -5 -1q-16 0 -16 16v309h-50q-62 0 -98 38q-40 40 -40 107v68v18q0 65 40 107q36 37 98 37h163q5 0 8 -2q6 -2 8 -14z" />
    <glyph glyph-name="periodcentered" unicode="&#xb7;" horiz-adv-x="462" 
d="M253 352l106 -106q4 -4 4 -11t-4 -11q-5 -5 -11 -5t-11 5l-106 105l-105 -105q-4 -4 -10 -4q-8 0 -13 4q-5 5 -5 11t5 11l106 106l-106 105q-5 5 -5 11q0 4 5 11q5 5 12 5q6 0 11 -5l105 -105l106 105q5 5 11 5t11 -5q4 -4 4 -11t-4 -11z" />
    <glyph glyph-name="guillemotright" unicode="&#xbb;" horiz-adv-x="369" 
d="M181 311l-11 -10l-45 -45l-47 -47q-8 -5 -12 -5q-6 0 -11 5q-4 4 -4 11t4 11l122 121l-37 38l-45 44l-10 11l-30 29q-4 6 -4 10l-1 1v2q0 3 5 10q6 4 12 4q5 0 11 -4l132 -133q5 -3 5 -11v-3q-4 -7 -5 -8zM319 353v-3q0 -4 -4 -8l-29 -31l-11 -10l-45 -45l-48 -47
q-5 -5 -10 -5q-7 0 -12 5t-5 16q0 7 1 10l126 117l-37 38l-44 44l-12 11l-29 29q-4 4 -4 13q0 6 4 10q8 4 11 4q5 0 11 -4l133 -133q4 -3 4 -11z" />
    <glyph glyph-name="afii10023" unicode="&#x401;" horiz-adv-x="422" 
d="M158 752q-14 0 -14 16v61q0 15 14 15t14 -15v-61q0 -16 -14 -16zM302 752q-14 0 -14 16v61q0 15 14 15q13 0 13 -15v-61q0 -16 -13 -16zM395 31q16 0 16 -16q0 -6 -4.5 -10.5t-11.5 -4.5h-133h-196q-7 0 -11.5 4.5t-4.5 10.5v541q0 65 40 107q37 37 98 37h14h186
q16 0 16 -16q0 -6 -4.5 -10.5t-11.5 -4.5h-143h-57q-47 0 -75 -28q-32 -32 -32 -86v-149h181q6 0 10.5 -4.5t4.5 -10.5q0 -7 -4.5 -11.5t-10.5 -4.5h-181v-344h314z" />
    <glyph glyph-name="afii10051" unicode="&#x402;" horiz-adv-x="439" 
 />
    <glyph glyph-name="afii10052" unicode="&#x403;" horiz-adv-x="409" 
 />
    <glyph glyph-name="afii10053" unicode="&#x404;" 
 />
    <glyph glyph-name="afii10054" unicode="&#x405;" 
d="M414 145q0 -66 -40 -108q-37 -37 -98 -37h-89q-61 0 -98 37q-40 42 -40 108q0 7 5 11.5t11 4.5q16 -2 16 -17q0 -53 31 -85q27 -27 75 -27h89q48 0 75 27q31 32 31 86v35v87q0 53 -31 85q-27 27 -76 27h-79h-12q-60 2 -95 38q-35 35 -40 102v19v7q5 85 40 121
q36 37 98 37h89q62 0 98 -37q40 -42 40 -108q0 -15 -16 -15t-16 17q0 52 -31 84q-28 28 -75 28h-89q-49 0 -75 -28q-27 -27 -32 -101v-20q0 -52 31 -85q27 -27 78 -27h5h82q61 0 98 -37q40 -41 40 -109v-120z" />
    <glyph glyph-name="afii10055" unicode="&#x406;" horiz-adv-x="133" 
 />
    <glyph glyph-name="afii10056" unicode="&#x407;" horiz-adv-x="833" 
 />
    <glyph glyph-name="afii10057" unicode="&#x408;" horiz-adv-x="409" 
d="M359 684v-540q0 -65 -40 -107q-37 -37 -98 -37h-72q-61 0 -97 38q-40 40 -40 108q0 15 16 15q15 0 15 -17q0 -53 31 -85q27 -27 75 -27h72q48 0 75 27q31 32 31 86v539q0 16 16 16t16 -16z" />
    <glyph glyph-name="afii10058" unicode="&#x409;" horiz-adv-x="833" 
 />
    <glyph glyph-name="afii10059" unicode="&#x40a;" horiz-adv-x="833" 
 />
    <glyph glyph-name="afii10060" unicode="&#x40b;" horiz-adv-x="833" 
 />
    <glyph glyph-name="afii10061" unicode="&#x40c;" horiz-adv-x="447" 
 />
    <glyph glyph-name="afii10062" unicode="&#x40e;" horiz-adv-x="462" 
d="M412 176v-31q0 -66 -40 -107q-36 -38 -98 -38h-63h-22q-62 0 -98 38q-40 40 -40 103v5q0 15 16 15q15 0 15 -17q0 -53 31 -85q27 -27 76 -27h57h28q48 0 75 27q14 15 22 36.5t9 35.5l1 14v149h-129h-63q-62 0 -98 37q-41 43 -41 108v98v1l1 2q0 1 -1 1v144q0 16 16 16
q14 0 16 -16v-148v-99q0 -53 31 -85q27 -28 76 -28h192v360q0 7 4.5 11.5t10.5 4.5q16 0 16 -16v-509z" />
    <glyph glyph-name="afii10145" unicode="&#x40f;" horiz-adv-x="833" 
 />
    <glyph glyph-name="afii10017" unicode="&#x410;" 
d="M371 663q40 -41 40 -109v-539q0 -6 -4.5 -10.5t-10.5 -4.5q-7 0 -11.5 4.5t-4.5 10.5v280h-299v-280q0 -6 -4.5 -10.5t-11.5 -4.5q-6 0 -10.5 4.5t-4.5 10.5v541q0 65 40 107q37 37 98 37h85q61 0 98 -37zM81 326h299v230q0 53 -32 85q-26 28 -75 28h-85q-48 0 -76 -28
q-31 -32 -31 -86v-229z" />
    <glyph glyph-name="afii10018" unicode="&#x411;" horiz-adv-x="446" 
d="M411 146q0 -67 -40 -108q-36 -37 -98 -37h-64h-144q-6 0 -10.5 4.5t-4.5 10.5v542q0 65 40 106q37 37 98 37h207q6 0 10.5 -4.5t4.5 -11.5q0 -6 -4.5 -10.5t-10.5 -4.5h-207q-48 0 -76 -28q-31 -32 -31 -86v-149h192q62 0 98 -37q40 -41 40 -108v-37v-79zM348 59
q32 32 32 86v80v38q0 53 -32 85q-27 28 -75 28h-11h-181v-344h192q48 0 75 27z" />
    <glyph glyph-name="afii10019" unicode="&#x412;" horiz-adv-x="446" 
d="M411 225v-81q0 -66 -40 -106q-36 -37 -98 -37h-64h-143q-7 0 -11.5 4.5t-4.5 10.5v541q0 65 40 107q37 37 98 37h85q61 0 98 -37q40 -41 40 -110v-35q0 -65 -40 -106q-11 -13 -28 -21q18 -11 28 -22q40 -40 40 -108v-37zM113 642q-32 -33 -32 -86v-149h129h69q43 1 70 28
q31 32 31 86v10v26q0 53 -31 85q-28 28 -76 28h-85q-47 0 -75 -28zM349 59q31 32 31 86v80v38q0 53 -31 85q-26 28 -70 28h-198v-344h182h10q49 0 76 27z" />
    <glyph glyph-name="afii10020" unicode="&#x413;" horiz-adv-x="409" 
d="M389 701q6 0 10.5 -4.5t4.5 -11.5t-4.5 -11.5t-10.5 -4.5h-144h-57q-48 0 -75 -27q-32 -32 -32 -86v-540q0 -7 -4.5 -11.5t-10.5 -4.5q-16 0 -16 16v541q0 65 40 106q36 38 98 38h14h187z" />
    <glyph glyph-name="afii10021" unicode="&#x414;" horiz-adv-x="529" 
d="M518 16v0v-87q0 -6 -4.5 -10.5t-10.5 -4.5q-7 0 -11.5 4.5t-4.5 10.5v72h-439h-6v-72q0 -6 -4.5 -10.5t-11.5 -4.5q-6 0 -10.5 4.5t-4.5 10.5v87v0v0q0 7 4.5 11.5t10.5 4.5h20q30 0 49 19q17 15 17 45v19v443q0 65 40 105q36 38 98 38h181q14 0 16 -16v-653h56
q6 0 10.5 -4.5t4.5 -11.5zM143 96q0 -39 -23 -64h295v637h-165q-49 0 -76 -27q-31 -32 -31 -86v-442v-18z" />
    <glyph glyph-name="afii10022" unicode="&#x415;" horiz-adv-x="446" 
d="M395 31q16 0 16 -16q0 -6 -4.5 -10.5t-11.5 -4.5h-133h-196q-7 0 -11.5 4.5t-4.5 10.5v541q0 65 40 107q37 37 98 37h14h186q16 0 16 -16q0 -6 -4.5 -10.5t-11.5 -4.5h-143h-57q-47 0 -75 -28q-32 -32 -32 -86v-149h181q6 0 10.5 -4.5t4.5 -10.5q0 -7 -4.5 -11.5
t-10.5 -4.5h-181v-344h314z" />
    <glyph glyph-name="afii10024" unicode="&#x416;" horiz-adv-x="551" 
d="M500 261l1 -246q0 -6 -4.5 -10.5t-11.5 -4.5t-11.5 4.5t-4.5 10.5v247q0 53 -31 85q-27 28 -76 28h-70v-360q0 -6 -4.5 -10.5t-11.5 -4.5q-14 0 -16 15v360h-72q-48 0 -75 -28q-14 -15 -22 -36t-9 -35l-1 -14v-247q0 -6 -4.5 -10.5t-10.5 -4.5q-7 0 -11.5 4.5t-4.5 10.5
v247q0 66 40 107q15 15 35 24q-15 10 -24 19q-40 40 -40 108v164q0 7 4.5 11.5t10.5 4.5h1q6 0 10.5 -4.5t4.5 -11.5v-165q0 -53 31 -85q25 -25 68 -28h69v278q0 16 16 16q14 0 16 -16v-278h68q44 3 67 28q32 32 32 86v166q0 14 15 14q16 0 16 -16v-165q0 -65 -40 -107
q-9 -9 -24 -19q19 -9 34 -24q40 -40 40 -108z" />
    <glyph glyph-name="afii10025" unicode="&#x417;" horiz-adv-x="431" 
d="M396 261v-117q0 -66 -40 -107q-36 -37 -98 -37h-85q-62 0 -98 37q-40 40 -40 103v5q0 15 16 15q15 0 15 -17q0 -53 31 -85q27 -27 76 -27h85q48 0 75 28q15 15 23 36t8 35l1 14v117q0 53 -32 86q-25 26 -69 28h-153q-6 0 -10.5 4.5t-4.5 11.5q0 6 4.5 10.5t10.5 4.5h153
q44 2 69 28q32 32 32 86v35q0 53 -32 86q-28 28 -75 28h-73q-48 0 -76 -28q-31 -32 -31 -86q0 -7 -5 -11.5t-11 -4.5q-15 0 -15 17q0 66 40 107q37 37 98 37h73q61 0 98 -37q40 -41 40 -110v-34q0 -65 -40 -107q-14 -14 -29 -21q15 -8 29 -22q40 -41 40 -108z" />
    <glyph glyph-name="afii10026" unicode="&#x418;" horiz-adv-x="460" 
d="M410 685v-669q0 -7 -4.5 -11.5t-10.5 -4.5q-16 0 -16 16v593l3 33l-14 -36l-266 -563l-15 -34q-5 -9 -14 -9q-1 0 -2 0.5t-2 0.5t-3 -1q-16 0 -16 16v669q0 16 16 16q14 0 16 -16v-593l-3 -33l14 36l244 520l37 77q4 9 13 9q1 0 2 -0.5t2 -0.5q1 1 3 1q16 0 16 -16z" />
    <glyph glyph-name="afii10027" unicode="&#x419;" 
d="M148 779l-11 12q-5 4 -5 11t5 11q4 4 11 4t11 -4l11 -12l3 -3q3 -2 7.5 -5.5t10.5 -7t14 -6t16 -2.5q24 0 43 21l13 13q4 4 11 4t11 -4q5 -5 5 -11t-5 -11l-12 -13q-30 -30 -67 -30q-40 1 -72 33zM403 685v-669q0 -7 -4.5 -11.5t-10.5 -4.5q-16 0 -16 16v593l3 33
l-14 -36l-266 -563l-15 -34q-5 -9 -14 -9h-2l-2 1l-1 -1h-2q-16 0 -16 16v669q0 16 16 16q14 0 16 -16v-593l-3 -33l14 36l244 520l37 77q4 9 13 9l2 -1h2q1 1 3 1q16 0 16 -16z" />
    <glyph glyph-name="afii10028" unicode="&#x41a;" horiz-adv-x="447" 
d="M412 160v-144q0 -6 -4.5 -10.5t-11.5 -4.5q-14 0 -16 15v144q0 2 1 5v97q0 54 -32 87q-27 27 -77 27h-190v-360q0 -6 -4.5 -10.5t-11.5 -4.5t-11.5 4.5t-4.5 10.5v669q0 16 16 16q6 0 10.5 -4.5t4.5 -11.5v-278h189q43 3 68 28q31 32 31 86v35v129q0 16 16 16
q6 0 10.5 -4.5t4.5 -11.5q1 -144 1 -146v-19q0 -65 -41 -107q-12 -12 -23 -18q19 -9 35 -25q40 -41 40 -108v-102z" />
    <glyph glyph-name="afii10029" unicode="&#x41b;" horiz-adv-x="462" 
d="M411 685l1 -669q0 -6 -4.5 -10.5t-11.5 -4.5t-11.5 4.5t-4.5 10.5v654h-166q-47 0 -75 -28q-31 -32 -31 -86v-442v-18q0 -42 -26 -68q-30 -27 -75 -27h-16q-7 0 -11.5 4.5t-4.5 10.5q0 16 16 16h17q33 0 52 19q16 16 16 45v19v442q0 65 41 106q36 38 97 38h181
q16 0 16 -16z" />
    <glyph glyph-name="afii10030" unicode="&#x41c;" horiz-adv-x="549" 
d="M484 700q15 0 15 -15v-669q0 -7 -4.5 -11.5t-10.5 -4.5q-16 0 -16 16v548l6 50l-12 -51l-172 -552q0 -11 -16 -11q-5 0 -8.5 3t-4.5 5l-1 3l-172 552l-12 51l6 -50v-548q0 -16 -16 -16q-14 0 -16 16v669q0 15 18 15q9 0 13 -11l64 -204l130 -416l145 466l48 154
q4 11 16 11z" />
    <glyph glyph-name="afii10031" unicode="&#x41d;" 
d="M411 684v-669q0 -6 -4.5 -10.5t-10.5 -4.5q-7 0 -11.5 4.5t-4.5 10.5v358h-299v-358v-2q0 -13 -15 -13q-7 0 -11.5 4.5t-4.5 10.5v669q0 7 4.5 11.5t10.5 4.5q16 0 16 -16v-280h298v280q0 16 16 16t16 -16z" />
    <glyph glyph-name="afii10032" unicode="&#x41e;" 
d="M411 555v-412q0 -64 -40 -105q-36 -38 -98 -38h-85q-62 0 -98 38q-40 41 -40 108v411q0 65 40 106q36 38 98 38h85q62 0 98 -38q40 -40 40 -108zM349 59q31 32 31 86v412q0 53 -31 85q-27 27 -76 27h-85q-48 0 -75 -27q-32 -32 -32 -86v-411v0q0 -53 32 -86
q27 -27 75 -27h85q49 0 76 27z" />
    <glyph glyph-name="afii10033" unicode="&#x41f;" horiz-adv-x="462" 
d="M411 685l1 -669q0 -6 -4.5 -10.5t-11.5 -4.5t-11.5 4.5t-4.5 10.5v653h-298v-653q0 -6 -4.5 -10.5t-11.5 -4.5q-14 0 -16 15v669v0q0 16 18 16h328q6 0 10.5 -4.5t4.5 -11.5z" />
    <glyph glyph-name="afii10034" unicode="&#x420;" horiz-adv-x="446" 
d="M411 441q0 -66 -40 -108q-37 -37 -98 -37h-192v-280q0 -6 -4.5 -10.5t-11.5 -4.5q-6 0 -10.5 4.5t-4.5 10.5v542q0 65 40 106q37 37 98 37h85q61 0 98 -37q40 -41 40 -109v-16v-98zM348 355q32 32 32 86v35v80q0 53 -32 86q-28 28 -75 28h-85q-48 0 -76 -28
q-31 -32 -31 -86v-229h192q47 0 75 28z" />
    <glyph glyph-name="afii10035" unicode="&#x421;" horiz-adv-x="458" 
d="M414 145q0 -67 -41 -108q-36 -37 -98 -37h-87q-62 0 -98 37q-40 41 -40 108v5v406q0 65 40 107q24 23 55 31q21 6 43 6h75q61 0 98 -37q40 -40 40 -104v-5q0 -6 -4.5 -10.5t-11.5 -4.5q-15 0 -15 17q0 53 -31 85q-27 27 -72 27h-79q-21 0 -36 -4q-26 -9 -39 -23
q-32 -32 -32 -86v-410q0 -54 32 -87q27 -27 75 -27h87q49 0 76 28q31 32 31 85q0 16 18 16q12 0 14 -15z" />
    <glyph glyph-name="afii10036" unicode="&#x422;" horiz-adv-x="439" 
d="M410 701q7 0 11.5 -4.5t4.5 -10.5q0 -16 -16 -16h-175v-653q0 -7 -4.5 -11.5t-10.5 -4.5q-16 0 -16 16v653h-175q-6 0 -10.5 4.5t-4.5 11.5q0 6 4.5 10.5t10.5 4.5h381z" />
    <glyph glyph-name="afii10037" unicode="&#x423;" horiz-adv-x="462" 
d="M412 176v-31q0 -66 -40 -107q-36 -38 -98 -38h-63h-22q-62 0 -98 38q-40 40 -40 103v5q0 15 16 15q15 0 15 -17q0 -53 31 -85q27 -27 76 -27h57h28q48 0 75 27q14 15 22 36.5t9 35.5l1 14v149h-129h-63q-62 0 -98 37q-41 43 -41 108v98v1l1 2q0 1 -1 1v144q0 16 16 16
q14 0 16 -16v-148v-99q0 -53 31 -85q27 -28 76 -28h192v360q0 7 4.5 11.5t10.5 4.5q16 0 16 -16v-509z" />
    <glyph glyph-name="afii10038" unicode="&#x424;" horiz-adv-x="551" 
d="M501 475v-204q0 -65 -40 -106q-37 -37 -98 -37h-80v-111q0 -16 -16 -16q-6 0 -10.5 4.5t-4.5 11.5l-1 111h-63q-61 0 -98 37q-40 40 -40 104v5v201v80v5q0 63 40 103q37 37 98 37h175q61 0 98 -37q40 -41 40 -109v-79zM251 159l1 510h-64q-48 0 -76 -28q-31 -32 -31 -86
v-80v-203q0 -53 31 -85q28 -28 76 -28h63zM439 187q31 32 31 86v245v38q0 53 -31 85q-28 28 -76 28h-80v-510h80q48 0 76 28z" />
    <glyph glyph-name="afii10039" unicode="&#x425;" horiz-adv-x="413" 
d="M391 23q2 -4 2 -7q0 -9 -10 -14q-4 -2 -6 -2q-11 0 -14 10l-157 338l-156 -338q-3 -10 -14 -10q-1 0 -7 2q-9 5 -9 14q0 3 2 7l167 362l-135 293q-2 4 -2 7q0 11 9 14q4 2 7 2q9 0 14 -9l124 -270l125 270q5 9 14 9q3 0 7 -2q9 -4 9 -14q0 -3 -2 -7l-135 -293z" />
    <glyph glyph-name="afii10040" unicode="&#x426;" horiz-adv-x="472" 
d="M488 4q26 -25 26 -89v-19q0 -6 -4.5 -10.5t-10.5 -4.5q-7 0 -11.5 4.5t-4.5 10.5v19q0 50 -16 66q-9 8 -22 13t-21 6h-9h-17h-210q-61 0 -98 37q-40 41 -40 108v539q0 16 16 16t16 -16v-540q0 -53 31 -85q27 -28 75 -28h194v653q0 7 4.5 11.5t10.5 4.5q16 0 16 -16
l2 -653q45 0 73 -27z" />
    <glyph glyph-name="afii10041" unicode="&#x427;" horiz-adv-x="447" 
d="M397 686v-669q0 -16 -16 -16q-6 0 -10.5 4.5t-4.5 11.5v278h-193q-60 0 -97 37q-41 41 -41 108v246q0 14 16 16q14 0 16 -16v-148v-99q0 -53 31 -85q28 -28 75 -28h192v360q0 16 16 16t16 -16z" />
    <glyph glyph-name="afii10042" unicode="&#x428;" horiz-adv-x="551" 
d="M501 15v0q0 -6 -4.5 -10.5t-11.5 -4.5h-297q-61 0 -97 37q-41 41 -41 108v539q0 16 16 16t16 -16v-540q0 -53 31 -85q27 -28 75 -28h72v653q0 16 16 16t16 -16v-653h177v653q0 14 16 16q14 0 16 -16v-669z" />
    <glyph glyph-name="afii10043" unicode="&#x429;" horiz-adv-x="563" 
d="M576 4q12 -12 19 -38.5t7 -49.5v-19q0 -6 -4.5 -10.5t-11.5 -4.5q-6 0 -10.5 4.5t-4.5 10.5v19q0 48 -17 65q-9 8 -22 13t-22 6h-8h-17h-296q-62 0 -98 37q-41 41 -41 108v539q0 16 16 16t16 -16v-540q0 -53 31 -85q27 -28 76 -28h71v653q0 16 16 16t16 -16v-653h177v653
q0 14 16 16q6 0 10.5 -4.5t4.5 -11.5l3 -653q44 0 73 -27z" />
    <glyph glyph-name="afii10044" unicode="&#x42a;" horiz-adv-x="505" 
d="M470 146q0 -66 -40 -108q-37 -37 -98 -37h-85q-61 0 -98 37q-40 41 -40 109v454q0 33 -19 52q-17 17 -46 17h-48q-16 0 -16 16q0 6 4.5 10.5t11.5 4.5h49q43 0 67 -26q25 -26 28 -74v-195h192q61 0 98 -37q40 -41 40 -109v-34v-80zM407 60q32 32 32 86v80v36q0 53 -32 85
q-28 28 -75 28h-192v-230q0 -53 32 -85q28 -28 75 -28h85q47 0 75 28z" />
    <glyph glyph-name="afii10045" unicode="&#x42b;" horiz-adv-x="539" 
d="M488 684l1 -669q0 -6 -4.5 -10.5t-11.5 -4.5t-11.5 4.5t-4.5 10.5v669q0 16 16 16q6 0 10.5 -4.5t4.5 -11.5zM411 224v-81q0 -65 -40 -106q-36 -37 -98 -37h-85q-62 0 -98 37q-40 41 -40 108v539q0 16 16 16q6 0 10.5 -4.5t4.5 -11.5v-279h192q62 0 98 -38
q40 -40 40 -108v-35zM349 59q31 32 31 85v18v99q0 53 -31 85q-27 27 -76 27h-192v-229q0 -53 32 -85q27 -28 75 -28h85q49 0 76 28z" />
    <glyph glyph-name="afii10046" unicode="&#x42c;" horiz-adv-x="446" 
d="M411 145q0 -67 -40 -108q-36 -37 -98 -37h-85q-62 0 -98 37q-40 41 -40 108v539q0 16 16 16q6 0 10.5 -4.5t4.5 -11.5v-279h192q62 0 98 -38q40 -40 40 -108v-35v-79zM349 59q31 32 31 85v80v37q0 53 -31 85q-27 27 -76 27h-192v-228q0 -53 32 -86q27 -28 75 -28h85
q49 0 76 28z" />
    <glyph glyph-name="afii10047" unicode="&#x42d;" horiz-adv-x="422" 
d="M372 145v-5q0 -63 -40 -103q-36 -37 -98 -37h-85q-62 0 -98 37q-40 41 -40 108q0 13 16 15q15 0 15 -16q0 -52 32 -85q27 -28 75 -28h85q49 0 76 28q31 32 31 85v68v163h-253q-16 0 -16 16q0 6 4.5 10.5t11.5 4.5h253v150q0 53 -31 85q-28 28 -76 28h-73q-47 0 -75 -28
q-31 -32 -31 -86q0 -6 -4.5 -11t-11.5 -5t-11.5 5t-4.5 11q0 66 41 107q36 38 97 38h73q61 0 98 -37q40 -40 40 -104v-5v-164v-166v-79z" />
    <glyph glyph-name="afii10048" unicode="&#x42e;" horiz-adv-x="592" 
d="M542 147q0 -2 -1 -3q0 -64 -40 -105q-32 -34 -85 -37h-79q-52 3 -86 37q-40 42 -40 107v229h-130v-358q0 -7 -4.5 -11.5t-10.5 -4.5q-16 0 -16 16v669q0 6 4.5 10.5t10.5 4.5q7 0 11.5 -4.5t4.5 -10.5v-280h130v152q0 65 40 107q33 33 86 36q1 1 3 1h63h4q59 -2 94 -37
q40 -41 40 -109v-24q0 -2 1 -3v-382zM479 60q31 32 31 86v397v15q0 53 -31 85q-28 28 -76 28h-54q-47 0 -75 -28q-31 -32 -31 -86v-331v-80q0 -54 31 -86q27 -27 75 -27h54q49 0 76 27z" />
    <glyph glyph-name="afii10049" unicode="&#x42f;" horiz-adv-x="446" 
d="M380 700q16 0 16 -16v-669q0 -6 -4.5 -10.5t-11.5 -4.5q-6 0 -10.5 4.5t-4.5 10.5v278h-129h-69q-44 -1 -70 -27q-31 -32 -31 -86v-165q0 -6 -4.5 -10.5t-11.5 -4.5q-6 0 -10.5 4.5t-4.5 10.5v165v5q0 62 40 102q10 11 28 22q-18 10 -28 21q-40 40 -40 104v5v36v80v5
q0 63 40 103q37 37 98 37h199q3 0 4 -1q2 1 4 1zM237 325h128v344h-182h-10q-48 0 -76 -28q-31 -32 -31 -86v-80v-38q0 -53 31 -85q27 -27 70 -27h70z" />
    <glyph glyph-name="afii10065" unicode="&#x430;" 
d="M371 663q40 -41 40 -109v-539q0 -6 -4.5 -10.5t-10.5 -4.5q-7 0 -11.5 4.5t-4.5 10.5v280h-299v-280q0 -6 -4.5 -10.5t-11.5 -4.5q-6 0 -10.5 4.5t-4.5 10.5v541q0 65 40 107q37 37 98 37h85q61 0 98 -37zM81 326h299v230q0 53 -32 85q-26 28 -75 28h-85q-48 0 -76 -28
q-31 -32 -31 -86v-229z" />
    <glyph glyph-name="afii10066" unicode="&#x431;" horiz-adv-x="446" 
d="M411 146q0 -67 -40 -108q-36 -37 -98 -37h-64h-144q-6 0 -10.5 4.5t-4.5 10.5v542q0 65 40 106q37 37 98 37h207q6 0 10.5 -4.5t4.5 -11.5q0 -6 -4.5 -10.5t-10.5 -4.5h-207q-48 0 -76 -28q-31 -32 -31 -86v-149h192q62 0 98 -37q40 -41 40 -108v-37v-79zM348 59
q32 32 32 86v80v38q0 53 -32 85q-27 28 -75 28h-11h-181v-344h192q48 0 75 27z" />
    <glyph glyph-name="afii10067" unicode="&#x432;" horiz-adv-x="446" 
d="M411 225v-81q0 -66 -40 -106q-36 -37 -98 -37h-64h-143q-7 0 -11.5 4.5t-4.5 10.5v541q0 65 40 107q37 37 98 37h85q61 0 98 -37q40 -41 40 -110v-35q0 -65 -40 -106q-11 -13 -28 -21q18 -11 28 -22q40 -40 40 -108v-37zM113 642q-32 -33 -32 -86v-149h129h69q43 1 70 28
q31 32 31 86v10v26q0 53 -31 85q-28 28 -76 28h-85q-47 0 -75 -28zM349 59q31 32 31 86v80v38q0 53 -31 85q-26 28 -70 28h-198v-344h182h10q49 0 76 27z" />
    <glyph glyph-name="afii10068" unicode="&#x433;" horiz-adv-x="409" 
d="M389 701q6 0 10.5 -4.5t4.5 -11.5t-4.5 -11.5t-10.5 -4.5h-144h-57q-48 0 -75 -27q-32 -32 -32 -86v-540q0 -7 -4.5 -11.5t-10.5 -4.5q-16 0 -16 16v541q0 65 40 106q36 38 98 38h14h187z" />
    <glyph glyph-name="afii10069" unicode="&#x434;" horiz-adv-x="529" 
d="M518 16v0v-87q0 -6 -4.5 -10.5t-10.5 -4.5q-7 0 -11.5 4.5t-4.5 10.5v72h-439h-6v-72q0 -6 -4.5 -10.5t-11.5 -4.5q-6 0 -10.5 4.5t-4.5 10.5v87v0v0q0 7 4.5 11.5t10.5 4.5h20q30 0 49 19q17 15 17 45v19v443q0 65 40 105q36 38 98 38h181q14 0 16 -16v-653h56
q6 0 10.5 -4.5t4.5 -11.5zM143 96q0 -39 -23 -64h295v637h-165q-49 0 -76 -27q-31 -32 -31 -86v-442v-18z" />
    <glyph glyph-name="afii10070" unicode="&#x435;" horiz-adv-x="446" 
d="M395 31q16 0 16 -16q0 -6 -4.5 -10.5t-11.5 -4.5h-133h-196q-7 0 -11.5 4.5t-4.5 10.5v541q0 65 40 107q37 37 98 37h14h186q16 0 16 -16q0 -6 -4.5 -10.5t-11.5 -4.5h-143h-57q-47 0 -75 -28q-32 -32 -32 -86v-149h181q6 0 10.5 -4.5t4.5 -10.5q0 -7 -4.5 -11.5
t-10.5 -4.5h-181v-344h314z" />
    <glyph glyph-name="afii10072" unicode="&#x436;" horiz-adv-x="551" 
d="M500 261l1 -246q0 -6 -4.5 -10.5t-11.5 -4.5t-11.5 4.5t-4.5 10.5v247q0 53 -31 85q-27 28 -76 28h-70v-360q0 -6 -4.5 -10.5t-11.5 -4.5q-14 0 -16 15v360h-72q-48 0 -75 -28q-14 -15 -22 -36t-9 -35l-1 -14v-247q0 -6 -4.5 -10.5t-10.5 -4.5q-7 0 -11.5 4.5t-4.5 10.5
v247q0 66 40 107q15 15 35 24q-15 10 -24 19q-40 40 -40 108v164q0 7 4.5 11.5t10.5 4.5h1q6 0 10.5 -4.5t4.5 -11.5v-165q0 -53 31 -85q25 -25 68 -28h69v278q0 16 16 16q14 0 16 -16v-278h68q44 3 67 28q32 32 32 86v166q0 14 15 14q16 0 16 -16v-165q0 -65 -40 -107
q-9 -9 -24 -19q19 -9 34 -24q40 -40 40 -108z" />
    <glyph glyph-name="afii10073" unicode="&#x437;" horiz-adv-x="431" 
d="M396 261v-117q0 -66 -40 -107q-36 -37 -98 -37h-85q-62 0 -98 37q-40 40 -40 103v5q0 15 16 15q15 0 15 -17q0 -53 31 -85q27 -27 76 -27h85q48 0 75 28q15 15 23 36t8 35l1 14v117q0 53 -32 86q-25 26 -69 28h-153q-6 0 -10.5 4.5t-4.5 11.5q0 6 4.5 10.5t10.5 4.5h153
q44 2 69 28q32 32 32 86v35q0 53 -32 86q-28 28 -75 28h-73q-48 0 -76 -28q-31 -32 -31 -86q0 -7 -5 -11.5t-11 -4.5q-15 0 -15 17q0 66 40 107q37 37 98 37h73q61 0 98 -37q40 -41 40 -110v-34q0 -65 -40 -107q-14 -14 -29 -21q15 -8 29 -22q40 -41 40 -108z" />
    <glyph glyph-name="afii10074" unicode="&#x438;" horiz-adv-x="460" 
d="M410 685v-669q0 -7 -4.5 -11.5t-10.5 -4.5q-16 0 -16 16v593l3 33l-14 -36l-266 -563l-15 -34q-5 -9 -14 -9q-1 0 -2 0.5t-2 0.5t-3 -1q-16 0 -16 16v669q0 16 16 16q14 0 16 -16v-593l-3 -33l14 36l244 520l37 77q4 9 13 9q1 0 2 -0.5t2 -0.5q1 1 3 1q16 0 16 -16z" />
    <glyph glyph-name="afii10075" unicode="&#x439;" horiz-adv-x="460" 
d="M148 779l-11 12q-5 4 -5 11t5 11q4 4 11 4t11 -4l11 -12l3 -3q3 -2 7.5 -5.5t10.5 -7t14 -6t16 -2.5q24 0 43 21l13 13q4 4 11 4t11 -4q5 -5 5 -11t-5 -11l-12 -13q-30 -30 -67 -30q-40 1 -72 33zM410 685v-669q0 -7 -4.5 -11.5t-10.5 -4.5q-16 0 -16 16v593l3 33
l-14 -36l-266 -563l-15 -34q-5 -9 -14 -9q-1 0 -2 0.5t-2 0.5t-3 -1q-16 0 -16 16v669q0 16 16 16q14 0 16 -16v-593l-3 -33l14 36l244 520l37 77q4 9 13 9q1 0 2 -0.5t2 -0.5q1 1 3 1q16 0 16 -16z" />
    <glyph glyph-name="afii10076" unicode="&#x43a;" horiz-adv-x="447" 
d="M412 160v-144q0 -6 -4.5 -10.5t-11.5 -4.5q-14 0 -16 15v144q0 2 1 5v97q0 54 -32 87q-27 27 -77 27h-190v-360q0 -6 -4.5 -10.5t-11.5 -4.5t-11.5 4.5t-4.5 10.5v669q0 16 16 16q6 0 10.5 -4.5t4.5 -11.5v-278h189q43 3 68 28q31 32 31 86v35v129q0 16 16 16
q6 0 10.5 -4.5t4.5 -11.5q1 -144 1 -146v-19q0 -65 -41 -107q-12 -12 -23 -18q19 -9 35 -25q40 -41 40 -108v-102z" />
    <glyph glyph-name="afii10077" unicode="&#x43b;" horiz-adv-x="462" 
d="M411 685l1 -669q0 -6 -4.5 -10.5t-11.5 -4.5t-11.5 4.5t-4.5 10.5v654h-166q-47 0 -75 -28q-31 -32 -31 -86v-442v-18q0 -42 -26 -68q-30 -27 -75 -27h-16q-7 0 -11.5 4.5t-4.5 10.5q0 16 16 16h17q33 0 52 19q16 16 16 45v19v442q0 65 41 106q36 38 97 38h181
q16 0 16 -16z" />
    <glyph glyph-name="afii10078" unicode="&#x43c;" horiz-adv-x="549" 
d="M484 700q15 0 15 -15v-669q0 -7 -4.5 -11.5t-10.5 -4.5q-16 0 -16 16v548l6 50l-12 -51l-172 -552q0 -11 -16 -11q-5 0 -8.5 3t-4.5 5l-1 3l-172 552l-12 51l6 -50v-548q0 -16 -16 -16q-14 0 -16 16v669q0 15 18 15q9 0 13 -11l64 -204l130 -416l145 466l48 154
q4 11 16 11z" />
    <glyph glyph-name="afii10079" unicode="&#x43d;" 
d="M411 684v-669q0 -6 -4.5 -10.5t-10.5 -4.5q-7 0 -11.5 4.5t-4.5 10.5v358h-299v-358v-2q0 -13 -15 -13q-7 0 -11.5 4.5t-4.5 10.5v669q0 7 4.5 11.5t10.5 4.5q16 0 16 -16v-280h298v280q0 16 16 16t16 -16z" />
    <glyph glyph-name="afii10080" unicode="&#x43e;" 
d="M411 555v-412q0 -64 -40 -105q-36 -38 -98 -38h-85q-62 0 -98 38q-40 41 -40 108v411q0 65 40 106q36 38 98 38h85q62 0 98 -38q40 -40 40 -108zM349 59q31 32 31 86v412q0 53 -31 85q-27 27 -76 27h-85q-48 0 -75 -27q-32 -32 -32 -86v-411v0q0 -53 32 -86
q27 -27 75 -27h85q49 0 76 27z" />
    <glyph glyph-name="afii10081" unicode="&#x43f;" horiz-adv-x="462" 
d="M411 685l1 -669q0 -6 -4.5 -10.5t-11.5 -4.5t-11.5 4.5t-4.5 10.5v653h-298v-653q0 -6 -4.5 -10.5t-11.5 -4.5q-14 0 -16 15v669v0q0 16 18 16h328q6 0 10.5 -4.5t4.5 -11.5z" />
    <glyph glyph-name="afii10082" unicode="&#x440;" horiz-adv-x="446" 
d="M411 441q0 -66 -40 -108q-37 -37 -98 -37h-192v-280q0 -6 -4.5 -10.5t-11.5 -4.5q-6 0 -10.5 4.5t-4.5 10.5v542q0 65 40 106q37 37 98 37h85q61 0 98 -37q40 -41 40 -109v-16v-98zM348 355q32 32 32 86v35v80q0 53 -32 86q-28 28 -75 28h-85q-48 0 -76 -28
q-31 -32 -31 -86v-229h192q47 0 75 28z" />
    <glyph glyph-name="afii10083" unicode="&#x441;" horiz-adv-x="458" 
d="M414 145q0 -67 -41 -108q-36 -37 -98 -37h-87q-62 0 -98 37q-40 41 -40 108v5v406q0 65 40 107q24 23 55 31q21 6 43 6h75q61 0 98 -37q40 -40 40 -104v-5q0 -6 -4.5 -10.5t-11.5 -4.5q-15 0 -15 17q0 53 -31 85q-27 27 -72 27h-79q-21 0 -36 -4q-26 -9 -39 -23
q-32 -32 -32 -86v-410q0 -54 32 -87q27 -27 75 -27h87q49 0 76 28q31 32 31 85q0 16 18 16q12 0 14 -15z" />
    <glyph glyph-name="afii10084" unicode="&#x442;" horiz-adv-x="439" 
d="M410 701q7 0 11.5 -4.5t4.5 -10.5q0 -16 -16 -16h-175v-653q0 -7 -4.5 -11.5t-10.5 -4.5q-16 0 -16 16v653h-175q-6 0 -10.5 4.5t-4.5 11.5q0 6 4.5 10.5t10.5 4.5h381z" />
    <glyph glyph-name="afii10085" unicode="&#x443;" horiz-adv-x="462" 
d="M412 176v-31q0 -66 -40 -107q-36 -38 -98 -38h-63h-22q-62 0 -98 38q-40 40 -40 103v5q0 15 16 15q15 0 15 -17q0 -53 31 -85q27 -27 76 -27h57h28q48 0 75 27q14 15 22 36.5t9 35.5l1 14v149h-129h-63q-62 0 -98 37q-41 43 -41 108v98v1l1 2q0 1 -1 1v144q0 16 16 16
q14 0 16 -16v-148v-99q0 -53 31 -85q27 -28 76 -28h192v360q0 7 4.5 11.5t10.5 4.5q16 0 16 -16v-509z" />
    <glyph glyph-name="afii10086" unicode="&#x444;" horiz-adv-x="551" 
d="M501 475v-204q0 -65 -40 -106q-37 -37 -98 -37h-80v-111q0 -16 -16 -16q-6 0 -10.5 4.5t-4.5 11.5l-1 111h-63q-61 0 -98 37q-40 40 -40 104v5v201v80v5q0 63 40 103q37 37 98 37h175q61 0 98 -37q40 -41 40 -109v-79zM251 159l1 510h-64q-48 0 -76 -28q-31 -32 -31 -86
v-80v-203q0 -53 31 -85q28 -28 76 -28h63zM439 187q31 32 31 86v245v38q0 53 -31 85q-28 28 -76 28h-80v-510h80q48 0 76 28z" />
    <glyph glyph-name="afii10087" unicode="&#x445;" horiz-adv-x="413" 
d="M391 23q2 -4 2 -7q0 -9 -10 -14q-4 -2 -6 -2q-11 0 -14 10l-157 338l-156 -338q-3 -10 -14 -10q-1 0 -7 2q-9 5 -9 14q0 3 2 7l167 362l-135 293q-2 4 -2 7q0 11 9 14q4 2 7 2q9 0 14 -9l124 -270l125 270q5 9 14 9q3 0 7 -2q9 -4 9 -14q0 -3 -2 -7l-135 -293z" />
    <glyph glyph-name="afii10088" unicode="&#x446;" horiz-adv-x="472" 
d="M488 4q26 -25 26 -89v-19q0 -6 -4.5 -10.5t-10.5 -4.5q-7 0 -11.5 4.5t-4.5 10.5v19q0 50 -16 66q-9 8 -22 13t-21 6h-9h-17h-210q-61 0 -98 37q-40 41 -40 108v539q0 16 16 16t16 -16v-540q0 -53 31 -85q27 -28 75 -28h194v653q0 7 4.5 11.5t10.5 4.5q16 0 16 -16
l2 -653q45 0 73 -27z" />
    <glyph glyph-name="afii10089" unicode="&#x447;" horiz-adv-x="447" 
d="M397 686v-669q0 -16 -16 -16q-6 0 -10.5 4.5t-4.5 11.5v278h-193q-60 0 -97 37q-41 41 -41 108v246q0 14 16 16q14 0 16 -16v-148v-99q0 -53 31 -85q28 -28 75 -28h192v360q0 16 16 16t16 -16z" />
    <glyph glyph-name="afii10090" unicode="&#x448;" horiz-adv-x="551" 
d="M501 15v0q0 -6 -4.5 -10.5t-11.5 -4.5h-297q-61 0 -97 37q-41 41 -41 108v539q0 16 16 16t16 -16v-540q0 -53 31 -85q27 -28 75 -28h72v653q0 16 16 16t16 -16v-653h177v653q0 14 16 16q14 0 16 -16v-669z" />
    <glyph glyph-name="afii10091" unicode="&#x449;" horiz-adv-x="563" 
d="M576 4q12 -12 19 -38.5t7 -49.5v-19q0 -6 -4.5 -10.5t-11.5 -4.5q-6 0 -10.5 4.5t-4.5 10.5v19q0 48 -17 65q-9 8 -22 13t-22 6h-8h-17h-296q-62 0 -98 37q-41 41 -41 108v539q0 16 16 16t16 -16v-540q0 -53 31 -85q27 -28 76 -28h71v653q0 16 16 16t16 -16v-653h177v653
q0 14 16 16q6 0 10.5 -4.5t4.5 -11.5l3 -653q44 0 73 -27z" />
    <glyph glyph-name="afii10092" unicode="&#x44a;" horiz-adv-x="505" 
d="M470 146q0 -66 -40 -108q-37 -37 -98 -37h-85q-61 0 -98 37q-40 41 -40 109v454q0 33 -19 52q-17 17 -46 17h-48q-16 0 -16 16q0 6 4.5 10.5t11.5 4.5h49q43 0 67 -26q25 -26 28 -74v-195h192q61 0 98 -37q40 -41 40 -109v-34v-80zM407 60q32 32 32 86v80v36q0 53 -32 85
q-28 28 -75 28h-192v-230q0 -53 32 -85q28 -28 75 -28h85q47 0 75 28z" />
    <glyph glyph-name="afii10093" unicode="&#x44b;" horiz-adv-x="539" 
d="M488 684l1 -669q0 -6 -4.5 -10.5t-11.5 -4.5t-11.5 4.5t-4.5 10.5v669q0 16 16 16q6 0 10.5 -4.5t4.5 -11.5zM411 224v-81q0 -65 -40 -106q-36 -37 -98 -37h-85q-62 0 -98 37q-40 41 -40 108v539q0 16 16 16q6 0 10.5 -4.5t4.5 -11.5v-279h192q62 0 98 -38
q40 -40 40 -108v-35zM349 59q31 32 31 85v18v99q0 53 -31 85q-27 27 -76 27h-192v-229q0 -53 32 -85q27 -28 75 -28h85q49 0 76 28z" />
    <glyph glyph-name="afii10094" unicode="&#x44c;" horiz-adv-x="446" 
d="M411 145q0 -67 -40 -108q-36 -37 -98 -37h-85q-62 0 -98 37q-40 41 -40 108v539q0 16 16 16q6 0 10.5 -4.5t4.5 -11.5v-279h192q62 0 98 -38q40 -40 40 -108v-35v-79zM349 59q31 32 31 85v80v37q0 53 -31 85q-27 27 -76 27h-192v-228q0 -53 32 -86q27 -28 75 -28h85
q49 0 76 28z" />
    <glyph glyph-name="afii10095" unicode="&#x44d;" horiz-adv-x="422" 
d="M372 145v-5q0 -63 -40 -103q-36 -37 -98 -37h-85q-62 0 -98 37q-40 41 -40 108q0 13 16 15q15 0 15 -16q0 -52 32 -85q27 -28 75 -28h85q49 0 76 28q31 32 31 85v68v163h-253q-16 0 -16 16q0 6 4.5 10.5t11.5 4.5h253v150q0 53 -31 85q-28 28 -76 28h-73q-47 0 -75 -28
q-31 -32 -31 -86q0 -6 -4.5 -11t-11.5 -5t-11.5 5t-4.5 11q0 66 41 107q36 38 97 38h73q61 0 98 -37q40 -40 40 -104v-5v-164v-166v-79z" />
    <glyph glyph-name="afii10096" unicode="&#x44e;" horiz-adv-x="592" 
d="M542 147q0 -2 -1 -3q0 -64 -40 -105q-32 -34 -85 -37h-79q-52 3 -86 37q-40 42 -40 107v229h-130v-358q0 -7 -4.5 -11.5t-10.5 -4.5q-16 0 -16 16v669q0 6 4.5 10.5t10.5 4.5q7 0 11.5 -4.5t4.5 -10.5v-280h130v152q0 65 40 107q33 33 86 36q1 1 3 1h63h4q59 -2 94 -37
q40 -41 40 -109v-24q0 -2 1 -3v-382zM479 60q31 32 31 86v397v15q0 53 -31 85q-28 28 -76 28h-54q-47 0 -75 -28q-31 -32 -31 -86v-331v-80q0 -54 31 -86q27 -27 75 -27h54q49 0 76 27z" />
    <glyph glyph-name="afii10097" unicode="&#x44f;" horiz-adv-x="446" 
d="M380 700q16 0 16 -16v-669q0 -6 -4.5 -10.5t-11.5 -4.5q-6 0 -10.5 4.5t-4.5 10.5v278h-129h-69q-44 -1 -70 -27q-31 -32 -31 -86v-165q0 -6 -4.5 -10.5t-11.5 -4.5q-6 0 -10.5 4.5t-4.5 10.5v165v5q0 62 40 102q10 11 28 22q-18 10 -28 21q-40 40 -40 104v5v36v80v5
q0 63 40 103q37 37 98 37h199q3 0 4 -1q2 1 4 1zM237 325h128v344h-182h-10q-48 0 -76 -28q-31 -32 -31 -86v-80v-38q0 -53 31 -85q27 -27 70 -27h70z" />
    <glyph glyph-name="afii10071" unicode="&#x451;" horiz-adv-x="446" 
d="M175 740q-14 0 -14 16v61q0 15 14 15t14 -15v-61q0 -16 -14 -16zM285 740q-14 0 -14 16v61q0 15 14 15q13 0 13 -15v-61q0 -16 -13 -16zM395 31q16 0 16 -16q0 -6 -4.5 -10.5t-11.5 -4.5h-133h-196q-7 0 -11.5 4.5t-4.5 10.5v541q0 65 40 107q37 37 98 37h14h186
q16 0 16 -16q0 -6 -4.5 -10.5t-11.5 -4.5h-143h-57q-47 0 -75 -28q-32 -32 -32 -86v-149h181q6 0 10.5 -4.5t4.5 -10.5q0 -7 -4.5 -11.5t-10.5 -4.5h-181v-344h314z" />
    <glyph glyph-name="afii10099" unicode="&#x452;" 
 />
    <glyph glyph-name="afii10100" unicode="&#x453;" horiz-adv-x="409" 
 />
    <glyph glyph-name="afii10101" unicode="&#x454;" horiz-adv-x="833" 
 />
    <glyph glyph-name="afii10102" unicode="&#x455;" 
d="M414 145q0 -66 -40 -108q-37 -37 -98 -37h-89q-61 0 -98 37q-40 42 -40 108q0 7 5 11.5t11 4.5q16 -2 16 -17q0 -53 31 -85q27 -27 75 -27h89q48 0 75 27q31 32 31 86v35v87q0 53 -31 85q-27 27 -76 27h-79h-12q-60 2 -95 38q-35 35 -40 102v19v7q5 85 40 121
q36 37 98 37h89q62 0 98 -37q40 -42 40 -108q0 -15 -16 -15t-16 17q0 52 -31 84q-28 28 -75 28h-89q-49 0 -75 -28q-27 -27 -32 -101v-20q0 -52 31 -85q27 -27 78 -27h5h82q61 0 98 -37q40 -41 40 -109v-120z" />
    <glyph glyph-name="afii10103" unicode="&#x456;" horiz-adv-x="133" 
d="M83 691v-675q0 -16 -16 -16q-6 0 -10.5 4.5t-4.5 11.5q-2 4 -2 323q0 310 2 352q0 7 4.5 11.5t10.5 4.5q16 0 16 -16z" />
    <glyph glyph-name="afii10104" unicode="&#x457;" horiz-adv-x="833" 
 />
    <glyph glyph-name="afii10105" unicode="&#x458;" horiz-adv-x="409" 
d="M359 684v-540q0 -65 -40 -107q-37 -37 -98 -37h-72q-61 0 -97 38q-40 40 -40 108q0 15 16 15q15 0 15 -17q0 -53 31 -85q27 -27 75 -27h72q48 0 75 27q31 32 31 86v539q0 16 16 16t16 -16z" />
    <glyph glyph-name="afii10106" unicode="&#x459;" horiz-adv-x="833" 
 />
    <glyph glyph-name="afii10107" unicode="&#x45a;" horiz-adv-x="833" 
 />
    <glyph glyph-name="afii10108" unicode="&#x45b;" 
 />
    <glyph glyph-name="afii10109" unicode="&#x45c;" horiz-adv-x="447" 
 />
    <glyph glyph-name="afii10110" unicode="&#x45e;" horiz-adv-x="462" 
d="M412 176v-31q0 -66 -40 -107q-36 -38 -98 -38h-63h-22q-62 0 -98 38q-40 40 -40 103v5q0 15 16 15q15 0 15 -17q0 -53 31 -85q27 -27 76 -27h57h28q48 0 75 27q14 15 22 36.5t9 35.5l1 14v149h-129h-63q-62 0 -98 37q-41 43 -41 108v98v1l1 2q0 1 -1 1v144q0 16 16 16
q14 0 16 -16v-148v-99q0 -53 31 -85q27 -28 76 -28h192v360q0 7 4.5 11.5t10.5 4.5q16 0 16 -16v-509z" />
    <glyph glyph-name="afii10193" unicode="&#x45f;" horiz-adv-x="833" 
 />
    <glyph glyph-name="afii10050" unicode="&#x490;" horiz-adv-x="833" 
 />
    <glyph glyph-name="afii10098" unicode="&#x491;" horiz-adv-x="833" 
 />
    <glyph glyph-name="endash" unicode="&#x2013;" horiz-adv-x="462" 
d="M66 370h329q17 0 17 -17q0 -15 -17 -15h-329q-7 0 -11.5 4.5t-4.5 10.5q0 17 16 17z" />
    <glyph glyph-name="emdash" unicode="&#x2014;" horiz-adv-x="550" 
d="M66 369h417q17 0 17 -17q0 -15 -17 -15h-417q-7 0 -11.5 4.5t-4.5 10.5q0 17 16 17z" />
    <glyph glyph-name="quoteleft" unicode="&#x2018;" horiz-adv-x="833" 
 />
    <glyph glyph-name="quoteright" unicode="&#x2019;" horiz-adv-x="833" 
 />
    <glyph glyph-name="quotesinglbase" unicode="&#x201a;" horiz-adv-x="135" 
d="M75 50h4q11 -5 11 -16v-4l-29 -91q-3 -11 -15 -11q-3 0 -4 1q-12 3 -12 15v2l1 2l29 91q3 11 15 11z" />
    <glyph glyph-name="quotedblleft" unicode="&#x201c;" horiz-adv-x="219" 
d="M168 607v-4q0 -12 -11 -15q-1 -1 -4 -1q-12 0 -15 11l-24 80v2l-1 2q0 13 12 16h4q12 0 15 -11zM76 687l24 -80v-4q0 -12 -11 -15q-1 -1 -4 -1q-12 0 -15 11l-24 80v2l-1 2q0 13 12 16h4q12 0 15 -11z" />
    <glyph glyph-name="quotedblright" unicode="&#x201d;" horiz-adv-x="201" 
d="M76 699h4q11 -4 11 -15q0 -3 -1 -5l-24 -80q-3 -11 -15 -11q-2 0 -4 1q-11 3 -11 15v4l24 80q5 11 16 11zM143 699h4q12 -3 12 -16l-1 -1v-3l-24 -80q-3 -11 -15 -11q-3 0 -4 1q-11 3 -11 15v4l24 80q3 11 15 11z" />
    <glyph glyph-name="quotedblbase" unicode="&#x201e;" horiz-adv-x="194" 
d="M75 50h4q11 -5 11 -16v-4l-29 -91q-3 -11 -15 -11q-3 0 -4 1q-12 3 -12 15v2l1 2l29 91q3 11 15 11zM148 50h4q11 -5 11 -16v-4l-29 -91q-3 -11 -15 -11q-3 0 -4 1q-12 3 -12 15l1 2v2l29 91q3 11 15 11z" />
    <glyph glyph-name="dagger" unicode="&#x2020;" horiz-adv-x="300" 
d="M163 807v-911q0 -17 -13 -17t-13 17v911q0 15 13 15t13 -15zM77 367h145q17 0 17 -15q0 -17 -17 -17h-145q-16 0 -16 17q0 6 4.5 10.5t11.5 4.5z" />
    <glyph glyph-name="daggerdbl" unicode="&#x2021;" horiz-adv-x="300" 
d="M163 807v-911q0 -17 -13 -17t-13 17v911q0 15 13 15t13 -15zM-15 456h331q15 0 15 -17q0 -6 -4.5 -10.5t-10.5 -4.5h-331q-6 0 -10.5 4.5t-4.5 10.5q0 17 15 17zM-15 283h331q6 0 10.5 -4.5t4.5 -11.5q0 -6 -4.5 -10.5t-10.5 -4.5h-331q-6 0 -10.5 4.5t-4.5 10.5
q0 7 4.5 11.5t10.5 4.5z" />
    <glyph glyph-name="bullet" unicode="&#x2022;" horiz-adv-x="279" 
d="M139 278q-31 0 -52.5 21.5t-21.5 52.5t21.5 52.5t52.5 21.5t53 -21.5t22 -52.5t-22 -52.5t-53 -21.5z" />
    <glyph glyph-name="ellipsis" unicode="&#x2026;" horiz-adv-x="408" 
d="M62 52q11 0 18.5 -7.5t7.5 -18.5q0 -10 -8 -18t-18 -8t-18 8t-8 18t8 18t18 8zM198 52q11 0 18.5 -7.5t7.5 -18.5q0 -10 -8 -18t-18 -8t-18 8t-8 18t8 18t18 8zM334 52q11 0 18.5 -7.5t7.5 -18.5q0 -10 -8 -18t-18 -8t-18 8t-8 18t8 18t18 8z" />
    <glyph glyph-name="perthousand" unicode="&#x2030;" horiz-adv-x="682" 
d="M91 0q11 0 14 10l257 669q0 1 0.5 2.5t0.5 2.5q0 12 -9 16q-1 0 -3.5 0.5t-3.5 0.5q-11 0 -14 -11l-257 -668q-1 -2 -1 -6q0 -9 9 -14q4 -2 7 -2zM18 429q-16 16 -18 48v161q0 29 18 48q17 17 45 17h71q29 0 44 -17q19 -19 19 -50v-9v-150q0 -30 -19 -48q-15 -18 -44 -18
h-71q-29 0 -45 18zM30 638v-161q0 -17 11 -27q7 -7 22 -7h71q15 0 22 7q4 4 6 11t2 11l1 5v31v124v6q0 16 -9 27q-10 8 -22 8h-71q-12 0 -22 -8q-5 -5 -7.5 -11.5t-3.5 -11.5v-4zM259 18q-16 16 -18 48v161q0 29 18 48q17 17 45 17h71q29 0 44 -17q19 -19 19 -50v-9v-150
q0 -30 -19 -48q-15 -18 -44 -18h-71q-28 0 -45 18zM271 227v-161q0 -17 11 -27q7 -7 22 -7h71q15 0 22 7q4 4 6.5 11t2.5 12v4v31v124v6q0 16 -9 27q-10 8 -22 8h-71q-12 0 -22 -8q-5 -5 -7.5 -11.5t-2.5 -10.5zM502 18q-16 16 -18 48v161q0 29 18 48q17 17 45 17h71
q29 0 44 -17q19 -19 19 -50v-9v-150q0 -30 -19 -48q-15 -18 -44 -18h-71q-29 0 -45 18zM514 227v-161q0 -17 11 -27q7 -7 22 -7h71q15 0 22 7q4 4 6 11t2 12l1 4v31v124v6q0 16 -9 27q-10 8 -22 8h-71q-12 0 -22 -8q-5 -5 -7.5 -11.5t-3.5 -10.5v-5z" />
    <glyph glyph-name="guilsinglleft" unicode="&#x2039;" horiz-adv-x="265" 
d="M95 301l-11 10l-29 30l-5 8v3q0 2 5 12l133 132q3 5 11 5q6 0 11 -5t5 -11q-4 -10 -5 -11l-30 -30l-10 -10l-45 -45l-37 -36l122 -122q4 -4 4 -11t-4 -11q-5 -5 -11 -5q-9 1 -11 5l-47 47z" />
    <glyph glyph-name="guilsinglright" unicode="&#x203a;" horiz-adv-x="265" 
d="M181 311l-11 -10l-46 -45l-47 -47q-2 -4 -11 -5q-6 0 -11 5q-4 4 -4 11t4 11l122 122l-37 36l-45 45l-10 10l-30 30q-1 1 -5 11q0 6 5 11t11 5q8 0 11 -5l133 -132q5 -10 5 -12v-3l-5 -8z" />
    <glyph glyph-name="Euro" unicode="&#x20ac;" horiz-adv-x="471" 
d="M424 145q0 -67 -41 -108q-35 -37 -97 -37h-87q-61 0 -98 37q-41 41 -41 108v134h-70q-6 0 -10.5 4.5t-4.5 11.5t4.5 11.5t10.5 4.5h70v78h-70q-15 0 -15 17q0 6 4.5 10.5t10.5 4.5h70v135q0 65 40 107q27 25 55 32q16 5 44 5h75q62 0 97 -37q40 -42 40 -108
q0 -14 -15 -16q-15 0 -15 17q0 53 -32 85q-26 27 -75 27h-76q-22 0 -35 -4q-25 -6 -40 -23q-31 -32 -31 -85v-135h228q14 0 16 -15q0 -17 -15 -17h-229v-78h228q14 0 16 -16q0 -7 -4.5 -11.5t-10.5 -4.5h-229v-135q0 -53 31 -86q29 -27 76 -27h87q47 0 75 28q32 32 32 86
q0 15 18 15q11 0 13 -15z" />
    <glyph glyph-name="afii61352" unicode="&#x2116;" horiz-adv-x="685" 
d="M50 16v669q0 16 16 16q2 0 3 -1q1 0 2 0.5t2 0.5q9 0 13 -9l37 -77l244 -520l14 -36l-3 33v593q2 16 16 16q16 0 16 -16v-669q0 -16 -16 -16h-1q-1 1 -2 1t-2 -0.5t-2 -0.5q-9 0 -14 9l-15 34l-266 563l-14 36l3 -33v-593q0 -16 -16 -16q-6 0 -10.5 4.5t-4.5 11.5z
M619 31q7 0 11.5 -4.5t4.5 -10.5q0 -16 -16 -16h-166q-15 0 -15 16q0 6 4.5 10.5t10.5 4.5h166zM456 77q-16 16 -18 48v161q0 29 18 48q17 17 45 17h71q29 0 44 -17q19 -19 19 -50v-9v-150q0 -30 -19 -48q-15 -18 -44 -18h-71q-28 0 -45 18zM468 286v-161q0 -17 11 -27
q7 -7 22 -7h71q15 0 22 7q4 4 6 11t2 11l1 5v31v124v6q0 16 -9 27q-10 8 -22 8h-71q-12 0 -22 -8q-5 -5 -7.5 -11.5t-3.5 -11.5v-4z" />
    <glyph glyph-name="trademark" unicode="&#x2122;" horiz-adv-x="335" 
d="M121 700q12 0 12 -12t-12 -12h-41v-133q0 -12 -12 -12t-12 12v133h-41q-12 0 -12 12t12 12h106zM300 688v-145q0 -4 -3.5 -8t-8.5 -4q-4 0 -8 3.5t-4 8.5v85l-35 -89q-2 -8 -12 -8t-13 11l-33 84v-83q0 -4 -3.5 -8t-8.5 -4t-8.5 3.5t-3.5 8.5v145q0 5 4 8.5t9 3.5h2l2 -1
q3 -1 7 -7l46 -117l47 117q3 8 10 8h4q10 0 10 -12z" />
    <glyph glyph-name="_0031" horiz-adv-x="0" 
 />
    <glyph glyph-name="_0127" horiz-adv-x="0" 
 />
    <glyph glyph-name="_0152" horiz-adv-x="0" 
 />
    <glyph glyph-name="afii10034.rouble" horiz-adv-x="446" 
d="M237 295h-156v-78h227q14 0 16 -16q0 -16 -16 -16h-227v-169q0 -7 -4.5 -11.5t-10.5 -4.5q-16 0 -16 16v169h-72q-16 0 -16 16t16 16h72v78h-72q-16 0 -16 16t16 16h72v229q0 65 40 107q36 37 98 37h85q62 0 98 -37q40 -41 40 -108v-17v-100q0 -65 -40 -105
q-36 -38 -98 -38h-36zM81 556v-229h156h36q49 0 76 27q31 32 31 86v36v80q0 53 -31 85q-27 28 -76 28h-85q-48 0 -75 -28q-15 -15 -23 -36t-8 -35z" />
    </font>
</defs>
</svg>
